<svg width="587" height="50" viewBox="0 0 587 50" fill="none" xmlns="http://www.w3.org/2000/svg">
<path d="M32.6699 47.4261H15.6599C10.9439 47.4261 7.45194 46.2021 5.18394 43.7541C2.95194 41.3061 1.83594 38.1381 1.83594 34.2501V19.0221C1.83594 17.0421 2.12394 15.3321 2.69994 13.8921C3.27594 12.4521 4.12194 11.2461 5.23794 10.2741L12.2039 4.38808C13.3199 3.45208 14.7419 2.75008 16.4699 2.28208C18.2339 1.81408 20.2859 1.58008 22.6259 1.58008H36.1259C36.9899 1.58008 37.6199 1.77808 38.0159 2.17408C38.4119 2.57008 38.6099 3.20008 38.6099 4.06408V10.5981C38.6099 11.0661 38.5379 11.4621 38.3939 11.7861C38.2859 12.1101 38.1059 12.3801 37.8539 12.5961L30.8339 18.4281C30.6899 18.5721 30.4559 18.6981 30.1319 18.8061C29.8439 18.9141 29.5199 18.9681 29.1599 18.9681H22.1399V26.7441C22.1759 26.6721 22.2299 26.6001 22.3019 26.5281C22.4099 26.4201 22.4999 26.3301 22.5719 26.2581L29.5379 20.3721C29.7179 20.2281 29.9519 20.1201 30.2399 20.0481C30.5639 19.9401 30.9059 19.8861 31.2659 19.8861H39.6359C40.4999 19.8861 41.1299 20.0841 41.5259 20.4801C41.9219 20.8761 42.1199 21.5061 42.1199 22.3701V39.0561C42.1199 39.5241 42.0479 39.9201 41.9039 40.2441C41.7959 40.5681 41.6159 40.8381 41.3639 41.0541L34.3439 46.8861C34.1999 47.0301 33.9659 47.1561 33.6419 47.2641C33.3539 47.3721 33.0299 47.4261 32.6699 47.4261ZM39.6359 41.0001C40.3199 41.0001 40.8059 40.8561 41.0939 40.5681C41.4179 40.2441 41.5799 39.7401 41.5799 39.0561V22.3701C41.5799 21.6861 41.4179 21.2001 41.0939 20.9121C40.8059 20.5881 40.3199 20.4261 39.6359 20.4261H31.2659C30.5819 20.4261 30.0779 20.5881 29.7539 20.9121C29.4659 21.2001 29.3219 21.6861 29.3219 22.3701V30.7941H24.0839C23.2559 30.7941 22.6259 30.5781 22.1939 30.1461C21.7979 29.7141 21.5999 29.0481 21.5999 28.1481V15.2421C21.5999 14.3421 21.8699 13.6761 22.4099 13.2441C22.9499 12.7761 23.7779 12.5421 24.8939 12.5421H36.1259C36.8099 12.5421 37.2959 12.3981 37.5839 12.1101C37.9079 11.7861 38.0699 11.2821 38.0699 10.5981V4.06408C38.0699 3.38008 37.9079 2.89408 37.5839 2.60608C37.2959 2.28208 36.8099 2.12008 36.1259 2.12008H22.6259C18.1259 2.12008 14.7779 3.02008 12.5819 4.82008C10.4219 6.62008 9.34194 9.39208 9.34194 13.1361V29.9841C9.34194 33.7281 10.4219 36.5001 12.5819 38.3001C14.7779 40.1001 18.1259 41.0001 22.6259 41.0001H39.6359ZM24.9479 36.1401C22.9679 36.1401 21.3479 36.0141 20.0879 35.7621C18.8279 35.5101 17.8379 35.1141 17.1179 34.5741C16.3979 33.9981 15.8939 33.2781 15.6059 32.4141C15.3539 31.5141 15.2279 30.4341 15.2279 29.1741V14.0541C15.2279 11.4981 15.8039 9.68008 16.9559 8.60008C18.1079 7.52008 20.4119 6.98008 23.8679 6.98008H33.2099V7.52008H23.8679C20.6999 7.52008 18.5579 8.02408 17.4419 9.03208C16.3259 10.0041 15.7679 11.6781 15.7679 14.0541V29.1741C15.7679 31.5141 16.3799 33.1701 17.6039 34.1421C18.8639 35.1141 21.3119 35.6001 24.9479 35.6001H35.1539V25.2861H35.6939V36.1401H24.9479Z" fill="#3B6295"/>
<path d="M58.9473 48.2361C55.4553 48.2361 52.5753 47.8581 50.3073 47.1021C48.0753 46.3821 46.3293 45.4101 45.0693 44.1861C43.8093 42.9621 42.9273 41.5581 42.4233 39.9741C41.9553 38.3901 41.7213 36.7521 41.7213 35.0601V9.95008C41.7213 9.48208 41.7753 9.08608 41.8833 8.76208C42.0273 8.43808 42.2253 8.16808 42.4773 7.95208L49.4433 2.06608C49.6233 1.92208 49.8573 1.81408 50.1453 1.74208C50.4693 1.63408 50.8113 1.58008 51.1713 1.58008H59.6493C60.5133 1.58008 61.1433 1.77808 61.5393 2.17408C61.9353 2.57008 62.1333 3.20008 62.1333 4.06408V28.6881C62.1333 29.0121 62.1873 29.3181 62.2953 29.6061C62.4033 29.8581 62.6373 30.0561 62.9973 30.2001V9.95008C62.9973 9.48208 63.0513 9.08608 63.1593 8.76208C63.2673 8.43808 63.4293 8.18608 63.6453 8.00608L63.6993 7.95208L70.7193 2.06608C70.8993 1.92208 71.1333 1.81408 71.4213 1.74208C71.7093 1.63408 72.0513 1.58008 72.4473 1.58008H80.6553C81.5193 1.58008 82.1493 1.77808 82.5453 2.17408C82.9413 2.57008 83.1393 3.20008 83.1393 4.06408V30.7941C83.1393 32.4501 82.9053 33.9801 82.4373 35.3841C81.9693 36.7881 81.1233 37.9941 79.8993 39.0021L72.8793 44.8341C71.6193 45.9141 69.8733 46.7421 67.6413 47.3181C65.4093 47.9301 62.5113 48.2361 58.9473 48.2361ZM82.5993 30.7941V4.06408C82.5993 3.38008 82.4373 2.89408 82.1133 2.60608C81.8253 2.28208 81.3393 2.12008 80.6553 2.12008H72.4473C71.7633 2.12008 71.2593 2.28208 70.9353 2.60608C70.6473 2.89408 70.5033 3.38008 70.5033 4.06408V28.6881C70.5033 29.4081 70.2333 30.0201 69.6933 30.5241C69.1533 30.9921 67.9293 31.2261 66.0213 31.2261C64.1493 31.2261 62.9433 30.9921 62.4033 30.5241C61.8633 30.0201 61.5933 29.4081 61.5933 28.6881V4.06408C61.5933 3.38008 61.4313 2.89408 61.1073 2.60608C60.8193 2.28208 60.3333 2.12008 59.6493 2.12008H51.1713C50.4873 2.12008 49.9833 2.28208 49.6593 2.60608C49.3713 2.89408 49.2273 3.38008 49.2273 4.06408V30.7941C49.2273 32.4501 49.4613 33.9621 49.9293 35.3301C50.4333 36.6621 51.2973 37.8141 52.5213 38.7861C53.7813 39.7221 55.4913 40.4601 57.6513 41.0001C59.8113 41.5401 62.5653 41.8101 65.9133 41.8101C69.2613 41.8101 72.0153 41.5401 74.1753 41.0001C76.3353 40.4601 78.0273 39.7221 79.2513 38.7861C80.5113 37.8141 81.3753 36.6621 81.8433 35.3301C82.3473 33.9621 82.5993 32.4501 82.5993 30.7941ZM55.1673 6.98008H55.7073V29.4981C55.7073 31.5141 56.4093 33.1521 57.8133 34.4121C59.2533 35.6361 61.9713 36.2481 65.9673 36.2481C69.9633 36.2481 72.6813 35.6361 74.1213 34.4121C75.5613 33.1521 76.2813 31.5141 76.2813 29.4981V6.98008H76.8213V29.4981C76.8213 31.6581 76.0653 33.4221 74.5533 34.7901C73.0413 36.1221 70.1793 36.7881 65.9673 36.7881C61.7553 36.7881 58.8933 36.1221 57.3813 34.7901C55.9053 33.4221 55.1673 31.6581 55.1673 29.4981V6.98008Z" fill="#3B6295"/>
<path d="M111.149 47.4261H86.0932C85.2292 47.4261 84.5992 47.2281 84.2032 46.8321C83.8072 46.4361 83.6092 45.8061 83.6092 44.9421V9.95008C83.6092 9.48208 83.6632 9.08608 83.7712 8.76208C83.9152 8.43808 84.1132 8.16808 84.3652 7.95208L91.3312 2.06608C91.5112 1.92208 91.7452 1.81408 92.0332 1.74208C92.3572 1.63408 92.6992 1.58008 93.0592 1.58008H118.115C118.979 1.58008 119.609 1.77808 120.005 2.17408C120.401 2.57008 120.599 3.20008 120.599 4.06408V10.3821C120.599 10.8501 120.527 11.2461 120.383 11.5701C120.275 11.8941 120.095 12.1641 119.843 12.3801L115.199 16.2141C115.559 16.3941 115.811 16.6641 115.955 17.0241C116.135 17.3841 116.225 17.8521 116.225 18.4281V24.2061C116.225 24.6741 116.153 25.0701 116.009 25.3941C115.901 25.7181 115.721 25.9881 115.469 26.2041L110.663 30.2541H118.115C118.979 30.2541 119.609 30.4521 120.005 30.8481C120.401 31.2441 120.599 31.8741 120.599 32.7381V39.0561C120.599 39.5241 120.527 39.9201 120.383 40.2441C120.275 40.5681 120.095 40.8381 119.843 41.0541L112.823 46.8861C112.679 47.0301 112.445 47.1561 112.121 47.2641C111.833 47.3721 111.509 47.4261 111.149 47.4261ZM118.115 41.0001C118.799 41.0001 119.285 40.8561 119.573 40.5681C119.897 40.2441 120.059 39.7401 120.059 39.0561V32.7381C120.059 32.0541 119.897 31.5681 119.573 31.2801C119.285 30.9561 118.799 30.7941 118.115 30.7941H103.211V26.1501H113.741C114.425 26.1501 114.911 26.0061 115.199 25.7181C115.523 25.3941 115.685 24.8901 115.685 24.2061V18.4281C115.685 17.7441 115.523 17.2581 115.199 16.9701C114.911 16.6461 114.425 16.4841 113.741 16.4841H103.211V12.3261H118.115C118.799 12.3261 119.285 12.1821 119.573 11.8941C119.897 11.5701 120.059 11.0661 120.059 10.3821V4.06408C120.059 3.38008 119.897 2.89408 119.573 2.60608C119.285 2.28208 118.799 2.12008 118.115 2.12008H93.0592C92.3752 2.12008 91.8712 2.28208 91.5472 2.60608C91.2592 2.89408 91.1152 3.38008 91.1152 4.06408V39.0561C91.1152 39.7401 91.2592 40.2441 91.5472 40.5681C91.8712 40.8561 92.3752 41.0001 93.0592 41.0001H118.115ZM115.199 35.6001V36.1401H97.0012V6.98008H115.199V7.52008H97.5412V21.0741H110.825V21.6141H97.5412V35.6001H115.199Z" fill="#3B6295"/>
<path d="M121.782 47.4261C120.918 47.4261 120.288 47.2281 119.892 46.8321C119.496 46.4361 119.298 45.8061 119.298 44.9421V38.6241C119.298 38.1561 119.352 37.7601 119.46 37.4361C119.604 37.1121 119.802 36.8421 120.054 36.6261L125.454 32.0901C123.546 31.5141 122.034 30.5421 120.918 29.1741C119.838 27.7701 119.298 25.7721 119.298 23.1801V17.5101C119.298 15.8901 119.568 14.4501 120.108 13.1901C120.648 11.9301 121.422 10.8681 122.43 10.0041L129.45 4.11808C130.422 3.32608 131.628 2.71408 133.068 2.28208C134.508 1.81408 136.146 1.58008 137.982 1.58008H153.102C153.966 1.58008 154.596 1.77808 154.992 2.17408C155.388 2.57008 155.586 3.20008 155.586 4.06408V10.4901C155.586 10.9581 155.514 11.3541 155.37 11.6781C155.262 12.0021 155.082 12.2721 154.83 12.4881L149.97 16.5381C152.238 17.0421 154.056 17.9961 155.424 19.4001C156.828 20.7681 157.53 22.9101 157.53 25.8261V31.4961C157.53 33.1161 157.26 34.5561 156.72 35.8161C156.18 37.0761 155.388 38.1381 154.344 39.0021L147.378 44.8341C146.37 45.6621 145.146 46.2921 143.706 46.7241C142.266 47.1921 140.646 47.4261 138.846 47.4261H121.782ZM145.812 41.0001C149.268 41.0001 151.986 40.1901 153.966 38.5701C155.982 36.9141 156.99 34.5561 156.99 31.4961V25.8261C156.99 22.8021 156.216 20.6421 154.668 19.3461C153.12 18.0501 151.086 17.2221 148.566 16.8621L140.52 15.7821C140.052 15.7461 139.692 15.5661 139.44 15.2421C139.188 14.9181 139.062 14.5221 139.062 14.0541C139.062 13.5861 139.188 13.2081 139.44 12.9201C139.692 12.5961 140.052 12.4341 140.52 12.4341H153.102C153.786 12.4341 154.272 12.2901 154.56 12.0021C154.884 11.6781 155.046 11.1741 155.046 10.4901V4.06408C155.046 3.38008 154.884 2.89408 154.56 2.60608C154.272 2.28208 153.786 2.12008 153.102 2.12008H137.982C134.49 2.12008 131.754 2.94808 129.774 4.60408C127.794 6.22408 126.804 8.56408 126.804 11.6241V17.2941C126.804 20.3181 127.56 22.4781 129.072 23.7741C130.62 25.0701 132.654 25.8981 135.174 26.2581L143.274 27.3921C143.742 27.4281 144.084 27.5901 144.3 27.8781C144.552 28.1661 144.678 28.6161 144.678 29.2281C144.678 29.6601 144.552 30.0381 144.3 30.3621C144.084 30.6501 143.742 30.7941 143.274 30.7941H128.748C128.064 30.7941 127.56 30.9561 127.236 31.2801C126.948 31.5681 126.804 32.0541 126.804 32.7381V39.0561C126.804 39.7401 126.948 40.2441 127.236 40.5681C127.56 40.8561 128.064 41.0001 128.748 41.0001H145.812ZM150.186 6.98008V7.52008H138.198C136.686 7.52008 135.48 7.93408 134.58 8.76208C133.68 9.59008 133.23 10.6341 133.23 11.8941V16.3221C133.23 17.5821 133.482 18.4641 133.986 18.9681C134.49 19.4721 135.156 19.7961 135.984 19.9401L147.378 22.2621C148.458 22.4781 149.34 22.9461 150.024 23.6661C150.744 24.3861 151.104 25.6821 151.104 27.5541V30.6861C151.104 32.2701 150.564 33.5841 149.484 34.6281C148.404 35.6361 146.946 36.1401 145.11 36.1401H131.664V35.6001H145.11C146.766 35.6001 148.08 35.1501 149.052 34.2501C150.06 33.3141 150.564 32.1261 150.564 30.6861V27.5541C150.564 25.8621 150.258 24.7101 149.646 24.0981C149.07 23.4501 148.278 23.0181 147.27 22.8021L135.876 20.4801C134.94 20.3001 134.166 19.9401 133.554 19.4001C132.978 18.8241 132.69 17.7981 132.69 16.3221V11.8941C132.69 10.4541 133.194 9.28408 134.202 8.38408C135.21 7.44808 136.542 6.98008 138.198 6.98008H150.186Z" fill="#3B6295"/>
<path d="M157.969 47.4261C157.105 47.4261 156.475 47.2281 156.079 46.8321C155.683 46.4361 155.484 45.8061 155.484 44.9421V38.6241C155.484 38.1561 155.538 37.7601 155.646 37.4361C155.79 37.1121 155.989 36.8421 156.241 36.6261L161.641 32.0901C159.733 31.5141 158.221 30.5421 157.105 29.1741C156.025 27.7701 155.484 25.7721 155.484 23.1801V17.5101C155.484 15.8901 155.755 14.4501 156.295 13.1901C156.835 11.9301 157.609 10.8681 158.617 10.0041L165.637 4.11808C166.609 3.32608 167.815 2.71408 169.255 2.28208C170.695 1.81408 172.333 1.58008 174.169 1.58008H189.289C190.153 1.58008 190.782 1.77808 191.178 2.17408C191.574 2.57008 191.773 3.20008 191.773 4.06408V10.4901C191.773 10.9581 191.701 11.3541 191.557 11.6781C191.449 12.0021 191.269 12.2721 191.017 12.4881L186.157 16.5381C188.425 17.0421 190.243 17.9961 191.611 19.4001C193.015 20.7681 193.717 22.9101 193.717 25.8261V31.4961C193.717 33.1161 193.447 34.5561 192.907 35.8161C192.367 37.0761 191.575 38.1381 190.531 39.0021L183.564 44.8341C182.556 45.6621 181.333 46.2921 179.893 46.7241C178.453 47.1921 176.833 47.4261 175.033 47.4261H157.969ZM181.999 41.0001C185.455 41.0001 188.173 40.1901 190.153 38.5701C192.169 36.9141 193.176 34.5561 193.176 31.4961V25.8261C193.176 22.8021 192.403 20.6421 190.855 19.3461C189.307 18.0501 187.273 17.2221 184.753 16.8621L176.706 15.7821C176.238 15.7461 175.879 15.5661 175.627 15.2421C175.375 14.9181 175.249 14.5221 175.249 14.0541C175.249 13.5861 175.375 13.2081 175.627 12.9201C175.879 12.5961 176.238 12.4341 176.706 12.4341H189.289C189.973 12.4341 190.459 12.2901 190.747 12.0021C191.071 11.6781 191.232 11.1741 191.232 10.4901V4.06408C191.232 3.38008 191.071 2.89408 190.747 2.60608C190.459 2.28208 189.973 2.12008 189.289 2.12008H174.169C170.677 2.12008 167.941 2.94808 165.961 4.60408C163.981 6.22408 162.991 8.56408 162.991 11.6241V17.2941C162.991 20.3181 163.746 22.4781 165.258 23.7741C166.806 25.0701 168.841 25.8981 171.361 26.2581L179.461 27.3921C179.929 27.4281 180.27 27.5901 180.486 27.8781C180.738 28.1661 180.865 28.6161 180.865 29.2281C180.865 29.6601 180.738 30.0381 180.486 30.3621C180.27 30.6501 179.929 30.7941 179.461 30.7941H164.935C164.251 30.7941 163.747 30.9561 163.423 31.2801C163.135 31.5681 162.991 32.0541 162.991 32.7381V39.0561C162.991 39.7401 163.135 40.2441 163.423 40.5681C163.747 40.8561 164.251 41.0001 164.935 41.0001H181.999ZM186.372 6.98008V7.52008H174.385C172.873 7.52008 171.667 7.93408 170.767 8.76208C169.867 9.59008 169.417 10.6341 169.417 11.8941V16.3221C169.417 17.5821 169.669 18.4641 170.173 18.9681C170.677 19.4721 171.343 19.7961 172.171 19.9401L183.564 22.2621C184.644 22.4781 185.527 22.9461 186.211 23.6661C186.931 24.3861 187.291 25.6821 187.291 27.5541V30.6861C187.291 32.2701 186.751 33.5841 185.671 34.6281C184.591 35.6361 183.133 36.1401 181.297 36.1401H167.851V35.6001H181.297C182.953 35.6001 184.267 35.1501 185.239 34.2501C186.247 33.3141 186.751 32.1261 186.751 30.6861V27.5541C186.751 25.8621 186.445 24.7101 185.833 24.0981C185.257 23.4501 184.464 23.0181 183.456 22.8021L172.062 20.4801C171.127 20.3001 170.353 19.9401 169.741 19.4001C169.165 18.8241 168.877 17.7981 168.877 16.3221V11.8941C168.877 10.4541 169.381 9.28408 170.389 8.38408C171.397 7.44808 172.729 6.98008 174.385 6.98008H186.372Z" fill="#3B6295"/>
<path d="M224.79 47.4261H216.042C215.178 47.4261 214.548 47.2281 214.152 46.8321C213.756 46.4361 213.558 45.8061 213.558 44.9421V18.9681H206.16C205.296 18.9681 204.666 18.7701 204.27 18.3741C203.874 17.9781 203.676 17.3481 203.676 16.4841V9.95008C203.676 9.48208 203.73 9.08608 203.838 8.76208C203.982 8.43808 204.18 8.16808 204.432 7.95208L211.398 2.06608C211.578 1.92208 211.812 1.81408 212.1 1.74208C212.424 1.63408 212.766 1.58008 213.126 1.58008H241.638C242.502 1.58008 243.132 1.77808 243.528 2.17408C243.924 2.57008 244.122 3.20008 244.122 4.06408V10.5981C244.122 11.0661 244.05 11.4621 243.906 11.7861C243.798 12.1101 243.618 12.3801 243.366 12.5961L236.346 18.4281C236.202 18.5721 235.968 18.6981 235.644 18.8061C235.356 18.9141 235.032 18.9681 234.672 18.9681H234.24V39.0561C234.24 39.5241 234.168 39.9201 234.024 40.2441C233.916 40.5681 233.736 40.8381 233.484 41.0541L226.464 46.8861C226.32 47.0301 226.086 47.1561 225.762 47.2641C225.474 47.3721 225.15 47.4261 224.79 47.4261ZM231.756 41.0001C232.44 41.0001 232.926 40.8561 233.214 40.5681C233.538 40.2441 233.7 39.7401 233.7 39.0561V12.5421H241.638C242.322 12.5421 242.808 12.3981 243.096 12.1101C243.42 11.7861 243.582 11.2821 243.582 10.5981V4.06408C243.582 3.38008 243.42 2.89408 243.096 2.60608C242.808 2.28208 242.322 2.12008 241.638 2.12008H213.126C212.442 2.12008 211.938 2.28208 211.614 2.60608C211.326 2.89408 211.182 3.38008 211.182 4.06408V10.5981C211.182 11.2821 211.326 11.7861 211.614 12.1101C211.938 12.3981 212.442 12.5421 213.126 12.5421H221.064V39.0561C221.064 39.7401 221.208 40.2441 221.496 40.5681C221.82 40.8561 222.324 41.0001 223.008 41.0001H231.756ZM227.112 36.1401V7.52008H216.042V6.98008H238.722V7.52008H227.652V36.1401H227.112Z" fill="#3B6295"/>
<path d="M255.994 36.1401V6.98008H256.534V21.2901H277.27V6.98008H277.81V36.1401H277.27V21.8301H256.534V36.1401H255.994ZM260.476 41.0001C261.16 41.0001 261.646 40.8561 261.934 40.5681C262.258 40.2441 262.42 39.7401 262.42 39.0561V27.0681H271.438V39.0561C271.438 39.7401 271.582 40.2441 271.87 40.5681C272.194 40.8561 272.698 41.0001 273.382 41.0001H281.752C282.436 41.0001 282.922 40.8561 283.21 40.5681C283.534 40.2441 283.696 39.7401 283.696 39.0561V4.06408C283.696 3.38008 283.534 2.89408 283.21 2.60608C282.922 2.28208 282.436 2.12008 281.752 2.12008H273.382C272.698 2.12008 272.194 2.28208 271.87 2.60608C271.582 2.89408 271.438 3.38008 271.438 4.06408V15.7821H262.42V4.06408C262.42 3.38008 262.258 2.89408 261.934 2.60608C261.646 2.28208 261.16 2.12008 260.476 2.12008H252.106C251.422 2.12008 250.918 2.28208 250.594 2.60608C250.306 2.89408 250.162 3.38008 250.162 4.06408V39.0561C250.162 39.7401 250.306 40.2441 250.594 40.5681C250.918 40.8561 251.422 41.0001 252.106 41.0001H260.476ZM262.204 41.0541L255.184 46.8861C255.04 47.0301 254.806 47.1561 254.482 47.2641C254.194 47.3721 253.87 47.4261 253.51 47.4261H245.14C244.276 47.4261 243.646 47.2281 243.25 46.8321C242.854 46.4361 242.656 45.8061 242.656 44.9421V9.95008C242.656 9.48208 242.71 9.08608 242.818 8.76208C242.962 8.43808 243.16 8.16808 243.412 7.95208L250.378 2.06608C250.558 1.92208 250.792 1.81408 251.08 1.74208C251.404 1.63408 251.746 1.58008 252.106 1.58008H260.476C261.34 1.58008 261.97 1.77808 262.366 2.17408C262.762 2.57008 262.96 3.20008 262.96 4.06408V15.2421H263.932V9.95008C263.932 9.48208 263.986 9.08608 264.094 8.76208C264.238 8.43808 264.436 8.16808 264.688 7.95208L271.654 2.06608C271.834 1.92208 272.068 1.81408 272.356 1.74208C272.68 1.63408 273.022 1.58008 273.382 1.58008H281.752C282.616 1.58008 283.246 1.77808 283.642 2.17408C284.038 2.57008 284.236 3.20008 284.236 4.06408V39.0561C284.236 39.5241 284.164 39.9201 284.02 40.2441C283.912 40.5681 283.732 40.8381 283.48 41.0541L276.46 46.8861C276.316 47.0301 276.082 47.1561 275.758 47.2641C275.47 47.3721 275.146 47.4261 274.786 47.4261H266.416C265.552 47.4261 264.922 47.2281 264.526 46.8321C264.13 46.4361 263.932 45.8061 263.932 44.9421V33.4941H262.96V39.0561C262.96 39.5241 262.888 39.9201 262.744 40.2441C262.636 40.5681 262.456 40.8381 262.204 41.0541Z" fill="#3B6295"/>
<path d="M312.552 47.4261H287.496C286.632 47.4261 286.002 47.2281 285.606 46.8321C285.21 46.4361 285.012 45.8061 285.012 44.9421V9.95008C285.012 9.48208 285.066 9.08608 285.174 8.76208C285.318 8.43808 285.516 8.16808 285.768 7.95208L292.734 2.06608C292.914 1.92208 293.148 1.81408 293.436 1.74208C293.76 1.63408 294.102 1.58008 294.462 1.58008H319.518C320.382 1.58008 321.012 1.77808 321.408 2.17408C321.804 2.57008 322.002 3.20008 322.002 4.06408V10.3821C322.002 10.8501 321.93 11.2461 321.786 11.5701C321.678 11.8941 321.498 12.1641 321.246 12.3801L316.602 16.2141C316.962 16.3941 317.214 16.6641 317.358 17.0241C317.538 17.3841 317.628 17.8521 317.628 18.4281V24.2061C317.628 24.6741 317.556 25.0701 317.412 25.3941C317.304 25.7181 317.124 25.9881 316.872 26.2041L312.066 30.2541H319.518C320.382 30.2541 321.012 30.4521 321.408 30.8481C321.804 31.2441 322.002 31.8741 322.002 32.7381V39.0561C322.002 39.5241 321.93 39.9201 321.786 40.2441C321.678 40.5681 321.498 40.8381 321.246 41.0541L314.226 46.8861C314.082 47.0301 313.848 47.1561 313.524 47.2641C313.236 47.3721 312.912 47.4261 312.552 47.4261ZM319.518 41.0001C320.202 41.0001 320.688 40.8561 320.976 40.5681C321.3 40.2441 321.462 39.7401 321.462 39.0561V32.7381C321.462 32.0541 321.3 31.5681 320.976 31.2801C320.688 30.9561 320.202 30.7941 319.518 30.7941H304.614V26.1501H315.144C315.828 26.1501 316.314 26.0061 316.602 25.7181C316.926 25.3941 317.088 24.8901 317.088 24.2061V18.4281C317.088 17.7441 316.926 17.2581 316.602 16.9701C316.314 16.6461 315.828 16.4841 315.144 16.4841H304.614V12.3261H319.518C320.202 12.3261 320.688 12.1821 320.976 11.8941C321.3 11.5701 321.462 11.0661 321.462 10.3821V4.06408C321.462 3.38008 321.3 2.89408 320.976 2.60608C320.688 2.28208 320.202 2.12008 319.518 2.12008H294.462C293.778 2.12008 293.274 2.28208 292.95 2.60608C292.662 2.89408 292.518 3.38008 292.518 4.06408V39.0561C292.518 39.7401 292.662 40.2441 292.95 40.5681C293.274 40.8561 293.778 41.0001 294.462 41.0001H319.518ZM316.602 35.6001V36.1401H298.404V6.98008H316.602V7.52008H298.944V21.0741H312.228V21.6141H298.944V35.6001H316.602Z" fill="#3B6295"/>
<path d="M349.818 7.41208L369.69 29.7681V6.98008H370.23V36.1401H369.69V30.5781L349.278 7.68208C349.242 7.64608 349.188 7.61008 349.116 7.57408C349.08 7.53808 349.044 7.52008 349.008 7.52008C348.972 7.52008 348.936 7.53808 348.9 7.57408C348.9 7.61008 348.9 7.64608 348.9 7.68208V36.1401H348.36V7.57408C348.36 7.35808 348.432 7.19608 348.576 7.08808C348.72 6.98008 348.864 6.92608 349.008 6.92608C349.152 6.92608 349.278 6.96208 349.386 7.03408C349.494 7.10608 349.638 7.23208 349.818 7.41208ZM352.734 41.0001C353.418 41.0001 353.904 40.8561 354.192 40.5681C354.516 40.2441 354.678 39.7401 354.678 39.0561V21.2361L363.912 32.4141V39.0561C363.912 39.7401 364.056 40.2441 364.344 40.5681C364.668 40.8561 365.172 41.0001 365.856 41.0001H373.956C374.64 41.0001 375.126 40.8561 375.414 40.5681C375.738 40.2441 375.9 39.7401 375.9 39.0561V4.06408C375.9 3.38008 375.738 2.89408 375.414 2.60608C375.126 2.28208 374.64 2.12008 373.956 2.12008H365.856C365.172 2.12008 364.668 2.28208 364.344 2.60608C364.056 2.89408 363.912 3.38008 363.912 4.06408V15.5661L353.436 3.57808C352.968 3.03808 352.482 2.66008 351.978 2.44408C351.51 2.22808 350.934 2.12008 350.25 2.12008H344.634C343.95 2.12008 343.446 2.28208 343.122 2.60608C342.834 2.89408 342.69 3.38008 342.69 4.06408V39.0561C342.69 39.7401 342.834 40.2441 343.122 40.5681C343.446 40.8561 343.95 41.0001 344.634 41.0001H352.734ZM354.462 41.0541L347.442 46.8861C347.298 47.0301 347.064 47.1561 346.74 47.2641C346.452 47.3721 346.128 47.4261 345.768 47.4261H337.668C336.804 47.4261 336.174 47.2281 335.778 46.8321C335.382 46.4361 335.184 45.8061 335.184 44.9421V9.95008C335.184 9.48208 335.238 9.08608 335.346 8.76208C335.49 8.43808 335.688 8.16808 335.94 7.95208L342.906 2.06608C343.086 1.92208 343.32 1.81408 343.608 1.74208C343.932 1.63408 344.274 1.58008 344.634 1.58008H350.25C351.042 1.58008 351.708 1.70608 352.248 1.95808C352.788 2.21008 353.328 2.62408 353.868 3.20008L357.594 7.52008L364.128 2.06608C364.308 1.92208 364.542 1.81408 364.83 1.74208C365.154 1.63408 365.496 1.58008 365.856 1.58008H373.956C374.82 1.58008 375.45 1.77808 375.846 2.17408C376.242 2.57008 376.44 3.20008 376.44 4.06408V39.0561C376.44 39.5241 376.368 39.9201 376.224 40.2441C376.116 40.5681 375.936 40.8381 375.684 41.0541L368.664 46.8861C368.52 47.0301 368.286 47.1561 367.962 47.2641C367.674 47.3721 367.35 47.4261 366.99 47.4261H358.89C358.026 47.4261 357.396 47.2281 357 46.8321C356.604 46.4361 356.406 45.8061 356.406 44.9421V38.5161L355.218 37.0581V39.0561C355.218 39.5241 355.146 39.9201 355.002 40.2441C354.894 40.5681 354.714 40.8381 354.462 41.0541Z" fill="#3B6295"/>
<path d="M394.127 48.2361C390.635 48.2361 387.755 47.8581 385.487 47.1021C383.255 46.3821 381.509 45.4101 380.249 44.1861C378.989 42.9621 378.107 41.5581 377.603 39.9741C377.135 38.3901 376.901 36.7521 376.901 35.0601V9.95008C376.901 9.48208 376.955 9.08608 377.063 8.76208C377.207 8.43808 377.405 8.16808 377.657 7.95208L384.623 2.06608C384.803 1.92208 385.037 1.81408 385.325 1.74208C385.649 1.63408 385.991 1.58008 386.351 1.58008H394.829C395.693 1.58008 396.323 1.77808 396.719 2.17408C397.115 2.57008 397.313 3.20008 397.313 4.06408V28.6881C397.313 29.0121 397.367 29.3181 397.475 29.6061C397.583 29.8581 397.817 30.0561 398.177 30.2001V9.95008C398.177 9.48208 398.231 9.08608 398.339 8.76208C398.447 8.43808 398.609 8.18608 398.825 8.00608L398.879 7.95208L405.899 2.06608C406.079 1.92208 406.313 1.81408 406.601 1.74208C406.889 1.63408 407.231 1.58008 407.627 1.58008H415.835C416.699 1.58008 417.329 1.77808 417.725 2.17408C418.121 2.57008 418.319 3.20008 418.319 4.06408V30.7941C418.319 32.4501 418.085 33.9801 417.617 35.3841C417.149 36.7881 416.303 37.9941 415.079 39.0021L408.059 44.8341C406.799 45.9141 405.053 46.7421 402.821 47.3181C400.589 47.9301 397.691 48.2361 394.127 48.2361ZM417.779 30.7941V4.06408C417.779 3.38008 417.617 2.89408 417.293 2.60608C417.005 2.28208 416.519 2.12008 415.835 2.12008H407.627C406.943 2.12008 406.439 2.28208 406.115 2.60608C405.827 2.89408 405.683 3.38008 405.683 4.06408V28.6881C405.683 29.4081 405.413 30.0201 404.873 30.5241C404.333 30.9921 403.109 31.2261 401.201 31.2261C399.329 31.2261 398.123 30.9921 397.583 30.5241C397.043 30.0201 396.773 29.4081 396.773 28.6881V4.06408C396.773 3.38008 396.611 2.89408 396.287 2.60608C395.999 2.28208 395.513 2.12008 394.829 2.12008H386.351C385.667 2.12008 385.163 2.28208 384.839 2.60608C384.551 2.89408 384.407 3.38008 384.407 4.06408V30.7941C384.407 32.4501 384.641 33.9621 385.109 35.3301C385.613 36.6621 386.477 37.8141 387.701 38.7861C388.961 39.7221 390.671 40.4601 392.831 41.0001C394.991 41.5401 397.745 41.8101 401.093 41.8101C404.441 41.8101 407.195 41.5401 409.355 41.0001C411.515 40.4601 413.207 39.7221 414.431 38.7861C415.691 37.8141 416.555 36.6621 417.023 35.3301C417.527 33.9621 417.779 32.4501 417.779 30.7941ZM390.347 6.98008H390.887V29.4981C390.887 31.5141 391.589 33.1521 392.993 34.4121C394.433 35.6361 397.151 36.2481 401.147 36.2481C405.143 36.2481 407.861 35.6361 409.301 34.4121C410.741 33.1521 411.461 31.5141 411.461 29.4981V6.98008H412.001V29.4981C412.001 31.6581 411.245 33.4221 409.733 34.7901C408.221 36.1221 405.359 36.7881 401.147 36.7881C396.935 36.7881 394.073 36.1221 392.561 34.7901C391.085 33.4221 390.347 31.6581 390.347 29.4981V6.98008Z" fill="#3B6295"/>
<path d="M445.303 20.2101C445.951 20.2101 446.419 20.0661 446.707 19.7781C446.995 19.4901 447.445 18.8781 448.057 17.9421L454.645 7.89808C454.861 7.53808 455.095 7.30408 455.347 7.19608C455.635 7.05208 455.923 6.98008 456.211 6.98008H457.129C457.633 6.98008 457.993 7.12408 458.209 7.41208C458.461 7.66408 458.587 8.07808 458.587 8.65408V36.1401H458.047V8.65408C458.047 8.36608 457.975 8.11408 457.831 7.89808C457.723 7.64608 457.489 7.52008 457.129 7.52008H456.319C456.067 7.52008 455.851 7.55608 455.671 7.62808C455.491 7.70008 455.293 7.91608 455.077 8.27608L448.489 18.2121C447.841 19.1841 447.337 19.8501 446.977 20.2101C446.653 20.5701 446.095 20.7501 445.303 20.7501C444.511 20.7501 443.935 20.5701 443.575 20.2101C443.251 19.8501 442.765 19.1841 442.117 18.2121L435.529 8.27608C435.313 7.91608 435.097 7.70008 434.881 7.62808C434.701 7.55608 434.485 7.52008 434.233 7.52008H433.423C433.063 7.52008 432.829 7.64608 432.721 7.89808C432.613 8.11408 432.559 8.36608 432.559 8.65408V36.1401H432.019V8.65408C432.019 8.07808 432.127 7.66408 432.343 7.41208C432.595 7.12408 432.955 6.98008 433.423 6.98008H434.341C434.629 6.98008 434.917 7.05208 435.205 7.19608C435.493 7.30408 435.745 7.53808 435.961 7.89808L442.549 17.9421C443.161 18.8781 443.611 19.4901 443.899 19.7781C444.187 20.0661 444.655 20.2101 445.303 20.2101ZM436.285 41.0001C436.969 41.0001 437.455 40.8561 437.743 40.5681C438.067 40.2441 438.229 39.7401 438.229 39.0561V20.0481L441.415 25.9341C441.739 26.5461 442.117 26.9961 442.549 27.2841C443.017 27.5361 443.593 27.6621 444.277 27.6621H446.437C447.121 27.6621 447.679 27.5361 448.111 27.2841C448.579 26.9961 448.975 26.5461 449.299 25.9341L452.485 20.0481V39.0561C452.485 39.7401 452.629 40.2441 452.917 40.5681C453.241 40.8561 453.745 41.0001 454.429 41.0001H462.745C463.429 41.0001 463.915 40.8561 464.203 40.5681C464.527 40.2441 464.689 39.7401 464.689 39.0561V4.06408C464.689 3.38008 464.527 2.89408 464.203 2.60608C463.915 2.28208 463.429 2.12008 462.745 2.12008H453.997C453.421 2.12008 452.935 2.24608 452.539 2.49808C452.179 2.75008 451.837 3.16408 451.513 3.74008L446.707 12.5421C446.527 12.8661 446.365 13.1001 446.221 13.2441C446.113 13.3881 445.951 13.4601 445.735 13.4601H445.249C445.033 13.4601 444.853 13.3881 444.709 13.2441C444.601 13.1001 444.457 12.8661 444.277 12.5421L439.417 3.74008C439.093 3.16408 438.733 2.75008 438.337 2.49808C437.977 2.24608 437.509 2.12008 436.933 2.12008H428.239C427.555 2.12008 427.051 2.28208 426.727 2.60608C426.439 2.89408 426.295 3.38008 426.295 4.06408V39.0561C426.295 39.7401 426.439 40.2441 426.727 40.5681C427.051 40.8561 427.555 41.0001 428.239 41.0001H436.285ZM438.013 41.0541L430.993 46.8861C430.849 47.0301 430.615 47.1561 430.291 47.2641C430.003 47.3721 429.679 47.4261 429.319 47.4261H421.273C420.409 47.4261 419.779 47.2281 419.383 46.8321C418.987 46.4361 418.789 45.8061 418.789 44.9421V9.95008C418.789 9.48208 418.843 9.08608 418.951 8.76208C419.095 8.43808 419.293 8.16808 419.545 7.95208L426.511 2.06608C426.691 1.92208 426.925 1.81408 427.213 1.74208C427.537 1.63408 427.879 1.58008 428.239 1.58008H436.933C437.617 1.58008 438.175 1.72408 438.607 2.01208C439.075 2.30008 439.507 2.78608 439.903 3.47008L443.575 10.2201L444.061 9.35608C444.205 9.10408 444.349 8.87008 444.493 8.65408C444.673 8.40208 444.853 8.20408 445.033 8.06008L451.999 2.22808C452.287 2.01208 452.575 1.85008 452.863 1.74208C453.187 1.63408 453.565 1.58008 453.997 1.58008H462.745C463.609 1.58008 464.239 1.77808 464.635 2.17408C465.031 2.57008 465.229 3.20008 465.229 4.06408V39.0561C465.229 39.5241 465.157 39.9201 465.013 40.2441C464.905 40.5681 464.725 40.8381 464.473 41.0541L457.453 46.8861C457.309 47.0301 457.075 47.1561 456.751 47.2641C456.463 47.3721 456.139 47.4261 455.779 47.4261H447.463C446.563 47.4261 445.915 47.2281 445.519 46.8321C445.159 46.4361 444.979 45.8061 444.979 44.9421V30.6861L441.793 33.3321C441.505 33.5841 441.163 33.7821 440.767 33.9261C440.407 34.0341 439.975 34.0881 439.471 34.0881H438.769V39.0561C438.769 39.5241 438.697 39.9201 438.553 40.2441C438.445 40.5681 438.265 40.8381 438.013 41.0541Z" fill="#3B6295"/>
<path d="M468.481 47.4261C467.617 47.4261 466.987 47.2281 466.591 46.8321C466.195 46.4361 465.997 45.8061 465.997 44.9421V9.95008C465.997 9.48208 466.051 9.08608 466.159 8.76208C466.303 8.43808 466.501 8.16808 466.753 7.95208L473.719 2.06608C473.899 1.92208 474.133 1.81408 474.421 1.74208C474.745 1.63408 475.087 1.58008 475.447 1.58008H492.673C496.417 1.58008 499.171 2.31808 500.935 3.79408C502.699 5.23408 503.581 7.43008 503.581 10.3821V12.9741C503.581 14.2341 503.401 15.3141 503.041 16.2141C502.717 17.1141 502.213 17.8341 501.529 18.3741L501.367 18.4821C503.311 18.9141 504.769 19.8501 505.741 21.2901C506.713 22.6941 507.199 24.6561 507.199 27.1761V32.1441C507.199 33.7641 506.965 35.1681 506.497 36.3561C506.029 37.5081 505.327 38.4801 504.391 39.2721L497.425 45.1581C496.525 45.9141 495.391 46.4721 494.023 46.8321C492.655 47.2281 491.053 47.4261 489.217 47.4261H468.481ZM496.183 41.0001C499.747 41.0001 502.375 40.2801 504.067 38.8401C505.795 37.4001 506.659 35.1681 506.659 32.1441V27.1761C506.659 24.5481 506.101 22.5501 504.985 21.1821C503.869 19.8141 502.159 19.0221 499.855 18.8061C500.935 18.3381 501.727 17.6361 502.231 16.7001C502.771 15.7281 503.041 14.4861 503.041 12.9741V10.3821C503.041 7.57408 502.195 5.50408 500.503 4.17208C498.811 2.80408 496.201 2.12008 492.673 2.12008H475.447C474.763 2.12008 474.259 2.28208 473.935 2.60608C473.647 2.89408 473.503 3.38008 473.503 4.06408V39.0561C473.503 39.7401 473.647 40.2441 473.935 40.5681C474.259 40.8561 474.763 41.0001 475.447 41.0001H496.183ZM494.023 36.1401H479.497V6.98008H490.459C491.935 6.98008 493.141 7.14208 494.077 7.46608C495.013 7.75408 495.733 8.16808 496.237 8.70808C496.741 9.21208 497.083 9.80608 497.263 10.4901C497.443 11.1741 497.533 11.9121 497.533 12.7041V16.1601C497.533 17.2401 497.335 18.2301 496.939 19.1301C496.579 20.0301 495.625 20.6781 494.077 21.0741C495.553 21.0741 496.759 21.2361 497.695 21.5601C498.631 21.8481 499.351 22.2801 499.855 22.8561C500.359 23.3961 500.683 24.0441 500.827 24.8001C501.007 25.5561 501.097 26.3841 501.097 27.2841V30.7401C501.097 31.5321 501.007 32.2701 500.827 32.9541C500.647 33.6021 500.305 34.1601 499.801 34.6281C499.333 35.0961 498.631 35.4741 497.695 35.7621C496.759 36.0141 495.535 36.1401 494.023 36.1401ZM490.459 7.52008H480.037V21.0741H490.459C491.935 21.0741 493.105 20.9481 493.969 20.6961C494.833 20.4081 495.481 20.0481 495.913 19.6161C496.381 19.1481 496.669 18.6261 496.777 18.0501C496.921 17.4381 496.993 16.8081 496.993 16.1601V12.7041C496.993 11.2641 496.579 10.0401 495.751 9.03208C494.923 8.02408 493.159 7.52008 490.459 7.52008ZM485.653 11.3001H490.243C490.927 11.3001 491.431 11.4801 491.755 11.8401C492.115 12.2001 492.295 12.7401 492.295 13.4601V14.9721C492.295 15.6921 492.115 16.2321 491.755 16.5921C491.431 16.9521 490.927 17.1321 490.243 17.1321H485.653V11.3001ZM494.077 21.6141H480.037V35.6001H494.023C496.723 35.6001 498.487 35.1681 499.315 34.3041C500.143 33.4041 500.557 32.2161 500.557 30.7401V27.2841C500.557 25.6641 500.143 24.3141 499.315 23.2341C498.523 22.1541 496.777 21.6141 494.077 21.6141ZM485.653 25.4481H492.673C493.357 25.4481 493.861 25.6281 494.185 25.9881C494.545 26.3121 494.725 26.8341 494.725 27.5541V29.6601C494.725 30.3801 494.545 30.9201 494.185 31.2801C493.861 31.6401 493.357 31.8201 492.673 31.8201H485.653V25.4481Z" fill="#3B6295"/>
<path d="M534.047 47.4261H508.991C508.127 47.4261 507.497 47.2281 507.101 46.8321C506.705 46.4361 506.507 45.8061 506.507 44.9421V9.95008C506.507 9.48208 506.561 9.08608 506.669 8.76208C506.813 8.43808 507.011 8.16808 507.263 7.95208L514.229 2.06608C514.409 1.92208 514.643 1.81408 514.931 1.74208C515.255 1.63408 515.597 1.58008 515.957 1.58008H541.013C541.877 1.58008 542.507 1.77808 542.903 2.17408C543.299 2.57008 543.497 3.20008 543.497 4.06408V10.3821C543.497 10.8501 543.425 11.2461 543.281 11.5701C543.173 11.8941 542.993 12.1641 542.741 12.3801L538.097 16.2141C538.457 16.3941 538.709 16.6641 538.853 17.0241C539.033 17.3841 539.123 17.8521 539.123 18.4281V24.2061C539.123 24.6741 539.051 25.0701 538.907 25.3941C538.799 25.7181 538.619 25.9881 538.367 26.2041L533.561 30.2541H541.013C541.877 30.2541 542.507 30.4521 542.903 30.8481C543.299 31.2441 543.497 31.8741 543.497 32.7381V39.0561C543.497 39.5241 543.425 39.9201 543.281 40.2441C543.173 40.5681 542.993 40.8381 542.741 41.0541L535.721 46.8861C535.577 47.0301 535.343 47.1561 535.019 47.2641C534.731 47.3721 534.407 47.4261 534.047 47.4261ZM541.013 41.0001C541.697 41.0001 542.183 40.8561 542.471 40.5681C542.795 40.2441 542.957 39.7401 542.957 39.0561V32.7381C542.957 32.0541 542.795 31.5681 542.471 31.2801C542.183 30.9561 541.697 30.7941 541.013 30.7941H526.109V26.1501H536.639C537.323 26.1501 537.809 26.0061 538.097 25.7181C538.421 25.3941 538.583 24.8901 538.583 24.2061V18.4281C538.583 17.7441 538.421 17.2581 538.097 16.9701C537.809 16.6461 537.323 16.4841 536.639 16.4841H526.109V12.3261H541.013C541.697 12.3261 542.183 12.1821 542.471 11.8941C542.795 11.5701 542.957 11.0661 542.957 10.3821V4.06408C542.957 3.38008 542.795 2.89408 542.471 2.60608C542.183 2.28208 541.697 2.12008 541.013 2.12008H515.957C515.273 2.12008 514.769 2.28208 514.445 2.60608C514.157 2.89408 514.013 3.38008 514.013 4.06408V39.0561C514.013 39.7401 514.157 40.2441 514.445 40.5681C514.769 40.8561 515.273 41.0001 515.957 41.0001H541.013ZM538.097 35.6001V36.1401H519.899V6.98008H538.097V7.52008H520.439V21.0741H533.723V21.6141H520.439V35.6001H538.097Z" fill="#3B6295"/>
<path d="M568.818 7.52008H557.046V23.1261H568.818C571.05 23.1261 572.544 22.5861 573.3 21.5061C574.056 20.4261 574.434 18.8961 574.434 16.9161V13.1361C574.434 11.4801 573.966 10.1301 573.03 9.08608C572.13 8.04208 570.726 7.52008 568.818 7.52008ZM562.878 11.8401H566.928C567.864 11.8401 568.494 12.0921 568.818 12.5961C569.142 13.0641 569.304 13.6581 569.304 14.3781V16.2141C569.304 16.9341 569.142 17.5461 568.818 18.0501C568.494 18.5181 567.864 18.7521 566.928 18.7521H562.878V11.8401ZM557.046 36.1401H556.506V6.98008H568.818C570.906 6.98008 572.454 7.57408 573.462 8.76208C574.47 9.91408 574.974 11.3721 574.974 13.1361V16.8621C574.974 18.5181 574.758 19.8861 574.326 20.9661C573.894 22.0101 573.03 22.7301 571.734 23.1261H572.328C574.524 23.1261 576.162 23.6301 577.242 24.6381C578.322 25.6101 578.862 27.0321 578.862 28.9041V36.1401H578.322V28.9041C578.322 27.1401 577.836 25.8261 576.864 24.9621C575.892 24.0621 574.38 23.6121 572.328 23.6121H557.046V36.1401ZM560.934 41.0001C561.618 41.0001 562.104 40.8561 562.392 40.5681C562.716 40.2441 562.878 39.7401 562.878 39.0561V28.4721H570.438C571.194 28.4721 571.716 28.6701 572.004 29.0661C572.328 29.4261 572.49 30.0021 572.49 30.7941V39.0561C572.49 39.7401 572.634 40.2441 572.922 40.5681C573.246 40.8561 573.75 41.0001 574.434 41.0001H582.804C583.488 41.0001 583.974 40.8561 584.262 40.5681C584.586 40.2441 584.748 39.7401 584.748 39.0561V27.6081C584.748 25.3401 584.136 23.5221 582.912 22.1541C581.724 20.7861 580.158 19.9941 578.214 19.7781C579.33 19.3101 580.104 18.5541 580.536 17.5101C581.004 16.4301 581.238 15.1341 581.238 13.6221V11.1381C581.238 8.47408 580.464 6.31408 578.916 4.65808C577.404 2.96608 574.632 2.12008 570.6 2.12008H552.618C551.934 2.12008 551.43 2.28208 551.106 2.60608C550.818 2.89408 550.674 3.38008 550.674 4.06408V39.0561C550.674 39.7401 550.818 40.2441 551.106 40.5681C551.43 40.8561 551.934 41.0001 552.618 41.0001H560.934ZM562.662 41.0541L555.642 46.8861C555.498 47.0301 555.264 47.1561 554.94 47.2641C554.652 47.3721 554.328 47.4261 553.968 47.4261H545.652C544.788 47.4261 544.158 47.2281 543.762 46.8321C543.366 46.4361 543.168 45.8061 543.168 44.9421V9.95008C543.168 9.48208 543.222 9.08608 543.33 8.76208C543.474 8.43808 543.672 8.16808 543.924 7.95208L550.89 2.06608C551.07 1.92208 551.304 1.81408 551.592 1.74208C551.916 1.63408 552.258 1.58008 552.618 1.58008H570.6C574.884 1.58008 577.818 2.48008 579.402 4.28008C580.986 6.04408 581.778 8.33008 581.778 11.1381V13.6221C581.778 14.9541 581.616 16.1241 581.292 17.1321C580.968 18.1041 580.446 18.8961 579.726 19.5081H579.672C581.364 19.9761 582.714 20.9121 583.722 22.3161C584.766 23.7201 585.288 25.4841 585.288 27.6081V39.0561C585.288 39.5241 585.216 39.9201 585.072 40.2441C584.964 40.5681 584.784 40.8381 584.532 41.0541L577.512 46.8861C577.368 47.0301 577.134 47.1561 576.81 47.2641C576.522 47.3721 576.198 47.4261 575.838 47.4261H567.468C566.604 47.4261 565.974 47.2281 565.578 46.8321C565.182 46.4361 564.984 45.8061 564.984 44.9421V36.6801C564.984 36.1041 564.876 35.6721 564.66 35.3841C564.444 35.0601 564.048 34.8981 563.472 34.8981H563.418V39.0561C563.418 39.5241 563.346 39.9201 563.202 40.2441C563.094 40.5681 562.914 40.8381 562.662 41.0541Z" fill="#3B6295"/>
<path d="M32.6699 47.4261H15.6599C10.9439 47.4261 7.45194 46.2021 5.18394 43.7541C2.95194 41.3061 1.83594 38.1381 1.83594 34.2501V19.0221C1.83594 17.0421 2.12394 15.3321 2.69994 13.8921C3.27594 12.4521 4.12194 11.2461 5.23794 10.2741L12.2039 4.38808C13.3199 3.45208 14.7419 2.75008 16.4699 2.28208C18.2339 1.81408 20.2859 1.58008 22.6259 1.58008H36.1259C36.9899 1.58008 37.6199 1.77808 38.0159 2.17408C38.4119 2.57008 38.6099 3.20008 38.6099 4.06408V10.5981C38.6099 11.0661 38.5379 11.4621 38.3939 11.7861C38.2859 12.1101 38.1059 12.3801 37.8539 12.5961L30.8339 18.4281C30.6899 18.5721 30.4559 18.6981 30.1319 18.8061C29.8439 18.9141 29.5199 18.9681 29.1599 18.9681H22.1399V26.7441C22.1759 26.6721 22.2299 26.6001 22.3019 26.5281C22.4099 26.4201 22.4999 26.3301 22.5719 26.2581L29.5379 20.3721C29.7179 20.2281 29.9519 20.1201 30.2399 20.0481C30.5639 19.9401 30.9059 19.8861 31.2659 19.8861H39.6359C40.4999 19.8861 41.1299 20.0841 41.5259 20.4801C41.9219 20.8761 42.1199 21.5061 42.1199 22.3701V39.0561C42.1199 39.5241 42.0479 39.9201 41.9039 40.2441C41.7959 40.5681 41.6159 40.8381 41.3639 41.0541L34.3439 46.8861C34.1999 47.0301 33.9659 47.1561 33.6419 47.2641C33.3539 47.3721 33.0299 47.4261 32.6699 47.4261ZM39.6359 41.0001C40.3199 41.0001 40.8059 40.8561 41.0939 40.5681C41.4179 40.2441 41.5799 39.7401 41.5799 39.0561V22.3701C41.5799 21.6861 41.4179 21.2001 41.0939 20.9121C40.8059 20.5881 40.3199 20.4261 39.6359 20.4261H31.2659C30.5819 20.4261 30.0779 20.5881 29.7539 20.9121C29.4659 21.2001 29.3219 21.6861 29.3219 22.3701V30.7941H24.0839C23.2559 30.7941 22.6259 30.5781 22.1939 30.1461C21.7979 29.7141 21.5999 29.0481 21.5999 28.1481V15.2421C21.5999 14.3421 21.8699 13.6761 22.4099 13.2441C22.9499 12.7761 23.7779 12.5421 24.8939 12.5421H36.1259C36.8099 12.5421 37.2959 12.3981 37.5839 12.1101C37.9079 11.7861 38.0699 11.2821 38.0699 10.5981V4.06408C38.0699 3.38008 37.9079 2.89408 37.5839 2.60608C37.2959 2.28208 36.8099 2.12008 36.1259 2.12008H22.6259C18.1259 2.12008 14.7779 3.02008 12.5819 4.82008C10.4219 6.62008 9.34194 9.39208 9.34194 13.1361V29.9841C9.34194 33.7281 10.4219 36.5001 12.5819 38.3001C14.7779 40.1001 18.1259 41.0001 22.6259 41.0001H39.6359ZM24.9479 36.1401C22.9679 36.1401 21.3479 36.0141 20.0879 35.7621C18.8279 35.5101 17.8379 35.1141 17.1179 34.5741C16.3979 33.9981 15.8939 33.2781 15.6059 32.4141C15.3539 31.5141 15.2279 30.4341 15.2279 29.1741V14.0541C15.2279 11.4981 15.8039 9.68008 16.9559 8.60008C18.1079 7.52008 20.4119 6.98008 23.8679 6.98008H33.2099V7.52008H23.8679C20.6999 7.52008 18.5579 8.02408 17.4419 9.03208C16.3259 10.0041 15.7679 11.6781 15.7679 14.0541V29.1741C15.7679 31.5141 16.3799 33.1701 17.6039 34.1421C18.8639 35.1141 21.3119 35.6001 24.9479 35.6001H35.1539V25.2861H35.6939V36.1401H24.9479Z" stroke="#E8C139" stroke-width="2"/>
<path d="M58.9473 48.2361C55.4553 48.2361 52.5753 47.8581 50.3073 47.1021C48.0753 46.3821 46.3293 45.4101 45.0693 44.1861C43.8093 42.9621 42.9273 41.5581 42.4233 39.9741C41.9553 38.3901 41.7213 36.7521 41.7213 35.0601V9.95008C41.7213 9.48208 41.7753 9.08608 41.8833 8.76208C42.0273 8.43808 42.2253 8.16808 42.4773 7.95208L49.4433 2.06608C49.6233 1.92208 49.8573 1.81408 50.1453 1.74208C50.4693 1.63408 50.8113 1.58008 51.1713 1.58008H59.6493C60.5133 1.58008 61.1433 1.77808 61.5393 2.17408C61.9353 2.57008 62.1333 3.20008 62.1333 4.06408V28.6881C62.1333 29.0121 62.1873 29.3181 62.2953 29.6061C62.4033 29.8581 62.6373 30.0561 62.9973 30.2001V9.95008C62.9973 9.48208 63.0513 9.08608 63.1593 8.76208C63.2673 8.43808 63.4293 8.18608 63.6453 8.00608L63.6993 7.95208L70.7193 2.06608C70.8993 1.92208 71.1333 1.81408 71.4213 1.74208C71.7093 1.63408 72.0513 1.58008 72.4473 1.58008H80.6553C81.5193 1.58008 82.1493 1.77808 82.5453 2.17408C82.9413 2.57008 83.1393 3.20008 83.1393 4.06408V30.7941C83.1393 32.4501 82.9053 33.9801 82.4373 35.3841C81.9693 36.7881 81.1233 37.9941 79.8993 39.0021L72.8793 44.8341C71.6193 45.9141 69.8733 46.7421 67.6413 47.3181C65.4093 47.9301 62.5113 48.2361 58.9473 48.2361ZM82.5993 30.7941V4.06408C82.5993 3.38008 82.4373 2.89408 82.1133 2.60608C81.8253 2.28208 81.3393 2.12008 80.6553 2.12008H72.4473C71.7633 2.12008 71.2593 2.28208 70.9353 2.60608C70.6473 2.89408 70.5033 3.38008 70.5033 4.06408V28.6881C70.5033 29.4081 70.2333 30.0201 69.6933 30.5241C69.1533 30.9921 67.9293 31.2261 66.0213 31.2261C64.1493 31.2261 62.9433 30.9921 62.4033 30.5241C61.8633 30.0201 61.5933 29.4081 61.5933 28.6881V4.06408C61.5933 3.38008 61.4313 2.89408 61.1073 2.60608C60.8193 2.28208 60.3333 2.12008 59.6493 2.12008H51.1713C50.4873 2.12008 49.9833 2.28208 49.6593 2.60608C49.3713 2.89408 49.2273 3.38008 49.2273 4.06408V30.7941C49.2273 32.4501 49.4613 33.9621 49.9293 35.3301C50.4333 36.6621 51.2973 37.8141 52.5213 38.7861C53.7813 39.7221 55.4913 40.4601 57.6513 41.0001C59.8113 41.5401 62.5653 41.8101 65.9133 41.8101C69.2613 41.8101 72.0153 41.5401 74.1753 41.0001C76.3353 40.4601 78.0273 39.7221 79.2513 38.7861C80.5113 37.8141 81.3753 36.6621 81.8433 35.3301C82.3473 33.9621 82.5993 32.4501 82.5993 30.7941ZM55.1673 6.98008H55.7073V29.4981C55.7073 31.5141 56.4093 33.1521 57.8133 34.4121C59.2533 35.6361 61.9713 36.2481 65.9673 36.2481C69.9633 36.2481 72.6813 35.6361 74.1213 34.4121C75.5613 33.1521 76.2813 31.5141 76.2813 29.4981V6.98008H76.8213V29.4981C76.8213 31.6581 76.0653 33.4221 74.5533 34.7901C73.0413 36.1221 70.1793 36.7881 65.9673 36.7881C61.7553 36.7881 58.8933 36.1221 57.3813 34.7901C55.9053 33.4221 55.1673 31.6581 55.1673 29.4981V6.98008Z" stroke="#E8C139" stroke-width="2"/>
<path d="M111.149 47.4261H86.0932C85.2292 47.4261 84.5992 47.2281 84.2032 46.8321C83.8072 46.4361 83.6092 45.8061 83.6092 44.9421V9.95008C83.6092 9.48208 83.6632 9.08608 83.7712 8.76208C83.9152 8.43808 84.1132 8.16808 84.3652 7.95208L91.3312 2.06608C91.5112 1.92208 91.7452 1.81408 92.0332 1.74208C92.3572 1.63408 92.6992 1.58008 93.0592 1.58008H118.115C118.979 1.58008 119.609 1.77808 120.005 2.17408C120.401 2.57008 120.599 3.20008 120.599 4.06408V10.3821C120.599 10.8501 120.527 11.2461 120.383 11.5701C120.275 11.8941 120.095 12.1641 119.843 12.3801L115.199 16.2141C115.559 16.3941 115.811 16.6641 115.955 17.0241C116.135 17.3841 116.225 17.8521 116.225 18.4281V24.2061C116.225 24.6741 116.153 25.0701 116.009 25.3941C115.901 25.7181 115.721 25.9881 115.469 26.2041L110.663 30.2541H118.115C118.979 30.2541 119.609 30.4521 120.005 30.8481C120.401 31.2441 120.599 31.8741 120.599 32.7381V39.0561C120.599 39.5241 120.527 39.9201 120.383 40.2441C120.275 40.5681 120.095 40.8381 119.843 41.0541L112.823 46.8861C112.679 47.0301 112.445 47.1561 112.121 47.2641C111.833 47.3721 111.509 47.4261 111.149 47.4261ZM118.115 41.0001C118.799 41.0001 119.285 40.8561 119.573 40.5681C119.897 40.2441 120.059 39.7401 120.059 39.0561V32.7381C120.059 32.0541 119.897 31.5681 119.573 31.2801C119.285 30.9561 118.799 30.7941 118.115 30.7941H103.211V26.1501H113.741C114.425 26.1501 114.911 26.0061 115.199 25.7181C115.523 25.3941 115.685 24.8901 115.685 24.2061V18.4281C115.685 17.7441 115.523 17.2581 115.199 16.9701C114.911 16.6461 114.425 16.4841 113.741 16.4841H103.211V12.3261H118.115C118.799 12.3261 119.285 12.1821 119.573 11.8941C119.897 11.5701 120.059 11.0661 120.059 10.3821V4.06408C120.059 3.38008 119.897 2.89408 119.573 2.60608C119.285 2.28208 118.799 2.12008 118.115 2.12008H93.0592C92.3752 2.12008 91.8712 2.28208 91.5472 2.60608C91.2592 2.89408 91.1152 3.38008 91.1152 4.06408V39.0561C91.1152 39.7401 91.2592 40.2441 91.5472 40.5681C91.8712 40.8561 92.3752 41.0001 93.0592 41.0001H118.115ZM115.199 35.6001V36.1401H97.0012V6.98008H115.199V7.52008H97.5412V21.0741H110.825V21.6141H97.5412V35.6001H115.199Z" stroke="#E8C139" stroke-width="2"/>
<path d="M121.782 47.4261C120.918 47.4261 120.288 47.2281 119.892 46.8321C119.496 46.4361 119.298 45.8061 119.298 44.9421V38.6241C119.298 38.1561 119.352 37.7601 119.46 37.4361C119.604 37.1121 119.802 36.8421 120.054 36.6261L125.454 32.0901C123.546 31.5141 122.034 30.5421 120.918 29.1741C119.838 27.7701 119.298 25.7721 119.298 23.1801V17.5101C119.298 15.8901 119.568 14.4501 120.108 13.1901C120.648 11.9301 121.422 10.8681 122.43 10.0041L129.45 4.11808C130.422 3.32608 131.628 2.71408 133.068 2.28208C134.508 1.81408 136.146 1.58008 137.982 1.58008H153.102C153.966 1.58008 154.596 1.77808 154.992 2.17408C155.388 2.57008 155.586 3.20008 155.586 4.06408V10.4901C155.586 10.9581 155.514 11.3541 155.37 11.6781C155.262 12.0021 155.082 12.2721 154.83 12.4881L149.97 16.5381C152.238 17.0421 154.056 17.9961 155.424 19.4001C156.828 20.7681 157.53 22.9101 157.53 25.8261V31.4961C157.53 33.1161 157.26 34.5561 156.72 35.8161C156.18 37.0761 155.388 38.1381 154.344 39.0021L147.378 44.8341C146.37 45.6621 145.146 46.2921 143.706 46.7241C142.266 47.1921 140.646 47.4261 138.846 47.4261H121.782ZM145.812 41.0001C149.268 41.0001 151.986 40.1901 153.966 38.5701C155.982 36.9141 156.99 34.5561 156.99 31.4961V25.8261C156.99 22.8021 156.216 20.6421 154.668 19.3461C153.12 18.0501 151.086 17.2221 148.566 16.8621L140.52 15.7821C140.052 15.7461 139.692 15.5661 139.44 15.2421C139.188 14.9181 139.062 14.5221 139.062 14.0541C139.062 13.5861 139.188 13.2081 139.44 12.9201C139.692 12.5961 140.052 12.4341 140.52 12.4341H153.102C153.786 12.4341 154.272 12.2901 154.56 12.0021C154.884 11.6781 155.046 11.1741 155.046 10.4901V4.06408C155.046 3.38008 154.884 2.89408 154.56 2.60608C154.272 2.28208 153.786 2.12008 153.102 2.12008H137.982C134.49 2.12008 131.754 2.94808 129.774 4.60408C127.794 6.22408 126.804 8.56408 126.804 11.6241V17.2941C126.804 20.3181 127.56 22.4781 129.072 23.7741C130.62 25.0701 132.654 25.8981 135.174 26.2581L143.274 27.3921C143.742 27.4281 144.084 27.5901 144.3 27.8781C144.552 28.1661 144.678 28.6161 144.678 29.2281C144.678 29.6601 144.552 30.0381 144.3 30.3621C144.084 30.6501 143.742 30.7941 143.274 30.7941H128.748C128.064 30.7941 127.56 30.9561 127.236 31.2801C126.948 31.5681 126.804 32.0541 126.804 32.7381V39.0561C126.804 39.7401 126.948 40.2441 127.236 40.5681C127.56 40.8561 128.064 41.0001 128.748 41.0001H145.812ZM150.186 6.98008V7.52008H138.198C136.686 7.52008 135.48 7.93408 134.58 8.76208C133.68 9.59008 133.23 10.6341 133.23 11.8941V16.3221C133.23 17.5821 133.482 18.4641 133.986 18.9681C134.49 19.4721 135.156 19.7961 135.984 19.9401L147.378 22.2621C148.458 22.4781 149.34 22.9461 150.024 23.6661C150.744 24.3861 151.104 25.6821 151.104 27.5541V30.6861C151.104 32.2701 150.564 33.5841 149.484 34.6281C148.404 35.6361 146.946 36.1401 145.11 36.1401H131.664V35.6001H145.11C146.766 35.6001 148.08 35.1501 149.052 34.2501C150.06 33.3141 150.564 32.1261 150.564 30.6861V27.5541C150.564 25.8621 150.258 24.7101 149.646 24.0981C149.07 23.4501 148.278 23.0181 147.27 22.8021L135.876 20.4801C134.94 20.3001 134.166 19.9401 133.554 19.4001C132.978 18.8241 132.69 17.7981 132.69 16.3221V11.8941C132.69 10.4541 133.194 9.28408 134.202 8.38408C135.21 7.44808 136.542 6.98008 138.198 6.98008H150.186Z" stroke="#E8C139" stroke-width="2"/>
<path d="M157.969 47.4261C157.105 47.4261 156.475 47.2281 156.079 46.8321C155.683 46.4361 155.484 45.8061 155.484 44.9421V38.6241C155.484 38.1561 155.538 37.7601 155.646 37.4361C155.79 37.1121 155.989 36.8421 156.241 36.6261L161.641 32.0901C159.733 31.5141 158.221 30.5421 157.105 29.1741C156.025 27.7701 155.484 25.7721 155.484 23.1801V17.5101C155.484 15.8901 155.755 14.4501 156.295 13.1901C156.835 11.9301 157.609 10.8681 158.617 10.0041L165.637 4.11808C166.609 3.32608 167.815 2.71408 169.255 2.28208C170.695 1.81408 172.333 1.58008 174.169 1.58008H189.289C190.153 1.58008 190.782 1.77808 191.178 2.17408C191.574 2.57008 191.773 3.20008 191.773 4.06408V10.4901C191.773 10.9581 191.701 11.3541 191.557 11.6781C191.449 12.0021 191.269 12.2721 191.017 12.4881L186.157 16.5381C188.425 17.0421 190.243 17.9961 191.611 19.4001C193.015 20.7681 193.717 22.9101 193.717 25.8261V31.4961C193.717 33.1161 193.447 34.5561 192.907 35.8161C192.367 37.0761 191.575 38.1381 190.531 39.0021L183.564 44.8341C182.556 45.6621 181.333 46.2921 179.893 46.7241C178.453 47.1921 176.833 47.4261 175.033 47.4261H157.969ZM181.999 41.0001C185.455 41.0001 188.173 40.1901 190.153 38.5701C192.169 36.9141 193.176 34.5561 193.176 31.4961V25.8261C193.176 22.8021 192.403 20.6421 190.855 19.3461C189.307 18.0501 187.273 17.2221 184.753 16.8621L176.706 15.7821C176.238 15.7461 175.879 15.5661 175.627 15.2421C175.375 14.9181 175.249 14.5221 175.249 14.0541C175.249 13.5861 175.375 13.2081 175.627 12.9201C175.879 12.5961 176.238 12.4341 176.706 12.4341H189.289C189.973 12.4341 190.459 12.2901 190.747 12.0021C191.071 11.6781 191.232 11.1741 191.232 10.4901V4.06408C191.232 3.38008 191.071 2.89408 190.747 2.60608C190.459 2.28208 189.973 2.12008 189.289 2.12008H174.169C170.677 2.12008 167.941 2.94808 165.961 4.60408C163.981 6.22408 162.991 8.56408 162.991 11.6241V17.2941C162.991 20.3181 163.746 22.4781 165.258 23.7741C166.806 25.0701 168.841 25.8981 171.361 26.2581L179.461 27.3921C179.929 27.4281 180.27 27.5901 180.486 27.8781C180.738 28.1661 180.865 28.6161 180.865 29.2281C180.865 29.6601 180.738 30.0381 180.486 30.3621C180.27 30.6501 179.929 30.7941 179.461 30.7941H164.935C164.251 30.7941 163.747 30.9561 163.423 31.2801C163.135 31.5681 162.991 32.0541 162.991 32.7381V39.0561C162.991 39.7401 163.135 40.2441 163.423 40.5681C163.747 40.8561 164.251 41.0001 164.935 41.0001H181.999ZM186.372 6.98008V7.52008H174.385C172.873 7.52008 171.667 7.93408 170.767 8.76208C169.867 9.59008 169.417 10.6341 169.417 11.8941V16.3221C169.417 17.5821 169.669 18.4641 170.173 18.9681C170.677 19.4721 171.343 19.7961 172.171 19.9401L183.564 22.2621C184.644 22.4781 185.527 22.9461 186.211 23.6661C186.931 24.3861 187.291 25.6821 187.291 27.5541V30.6861C187.291 32.2701 186.751 33.5841 185.671 34.6281C184.591 35.6361 183.133 36.1401 181.297 36.1401H167.851V35.6001H181.297C182.953 35.6001 184.267 35.1501 185.239 34.2501C186.247 33.3141 186.751 32.1261 186.751 30.6861V27.5541C186.751 25.8621 186.445 24.7101 185.833 24.0981C185.257 23.4501 184.464 23.0181 183.456 22.8021L172.062 20.4801C171.127 20.3001 170.353 19.9401 169.741 19.4001C169.165 18.8241 168.877 17.7981 168.877 16.3221V11.8941C168.877 10.4541 169.381 9.28408 170.389 8.38408C171.397 7.44808 172.729 6.98008 174.385 6.98008H186.372Z" stroke="#E8C139" stroke-width="2"/>
<path d="M224.79 47.4261H216.042C215.178 47.4261 214.548 47.2281 214.152 46.8321C213.756 46.4361 213.558 45.8061 213.558 44.9421V18.9681H206.16C205.296 18.9681 204.666 18.7701 204.27 18.3741C203.874 17.9781 203.676 17.3481 203.676 16.4841V9.95008C203.676 9.48208 203.73 9.08608 203.838 8.76208C203.982 8.43808 204.18 8.16808 204.432 7.95208L211.398 2.06608C211.578 1.92208 211.812 1.81408 212.1 1.74208C212.424 1.63408 212.766 1.58008 213.126 1.58008H241.638C242.502 1.58008 243.132 1.77808 243.528 2.17408C243.924 2.57008 244.122 3.20008 244.122 4.06408V10.5981C244.122 11.0661 244.05 11.4621 243.906 11.7861C243.798 12.1101 243.618 12.3801 243.366 12.5961L236.346 18.4281C236.202 18.5721 235.968 18.6981 235.644 18.8061C235.356 18.9141 235.032 18.9681 234.672 18.9681H234.24V39.0561C234.24 39.5241 234.168 39.9201 234.024 40.2441C233.916 40.5681 233.736 40.8381 233.484 41.0541L226.464 46.8861C226.32 47.0301 226.086 47.1561 225.762 47.2641C225.474 47.3721 225.15 47.4261 224.79 47.4261ZM231.756 41.0001C232.44 41.0001 232.926 40.8561 233.214 40.5681C233.538 40.2441 233.7 39.7401 233.7 39.0561V12.5421H241.638C242.322 12.5421 242.808 12.3981 243.096 12.1101C243.42 11.7861 243.582 11.2821 243.582 10.5981V4.06408C243.582 3.38008 243.42 2.89408 243.096 2.60608C242.808 2.28208 242.322 2.12008 241.638 2.12008H213.126C212.442 2.12008 211.938 2.28208 211.614 2.60608C211.326 2.89408 211.182 3.38008 211.182 4.06408V10.5981C211.182 11.2821 211.326 11.7861 211.614 12.1101C211.938 12.3981 212.442 12.5421 213.126 12.5421H221.064V39.0561C221.064 39.7401 221.208 40.2441 221.496 40.5681C221.82 40.8561 222.324 41.0001 223.008 41.0001H231.756ZM227.112 36.1401V7.52008H216.042V6.98008H238.722V7.52008H227.652V36.1401H227.112Z" stroke="#E8C139" stroke-width="2"/>
<path d="M255.994 36.1401V6.98008H256.534V21.2901H277.27V6.98008H277.81V36.1401H277.27V21.8301H256.534V36.1401H255.994ZM260.476 41.0001C261.16 41.0001 261.646 40.8561 261.934 40.5681C262.258 40.2441 262.42 39.7401 262.42 39.0561V27.0681H271.438V39.0561C271.438 39.7401 271.582 40.2441 271.87 40.5681C272.194 40.8561 272.698 41.0001 273.382 41.0001H281.752C282.436 41.0001 282.922 40.8561 283.21 40.5681C283.534 40.2441 283.696 39.7401 283.696 39.0561V4.06408C283.696 3.38008 283.534 2.89408 283.21 2.60608C282.922 2.28208 282.436 2.12008 281.752 2.12008H273.382C272.698 2.12008 272.194 2.28208 271.87 2.60608C271.582 2.89408 271.438 3.38008 271.438 4.06408V15.7821H262.42V4.06408C262.42 3.38008 262.258 2.89408 261.934 2.60608C261.646 2.28208 261.16 2.12008 260.476 2.12008H252.106C251.422 2.12008 250.918 2.28208 250.594 2.60608C250.306 2.89408 250.162 3.38008 250.162 4.06408V39.0561C250.162 39.7401 250.306 40.2441 250.594 40.5681C250.918 40.8561 251.422 41.0001 252.106 41.0001H260.476ZM262.204 41.0541L255.184 46.8861C255.04 47.0301 254.806 47.1561 254.482 47.2641C254.194 47.3721 253.87 47.4261 253.51 47.4261H245.14C244.276 47.4261 243.646 47.2281 243.25 46.8321C242.854 46.4361 242.656 45.8061 242.656 44.9421V9.95008C242.656 9.48208 242.71 9.08608 242.818 8.76208C242.962 8.43808 243.16 8.16808 243.412 7.95208L250.378 2.06608C250.558 1.92208 250.792 1.81408 251.08 1.74208C251.404 1.63408 251.746 1.58008 252.106 1.58008H260.476C261.34 1.58008 261.97 1.77808 262.366 2.17408C262.762 2.57008 262.96 3.20008 262.96 4.06408V15.2421H263.932V9.95008C263.932 9.48208 263.986 9.08608 264.094 8.76208C264.238 8.43808 264.436 8.16808 264.688 7.95208L271.654 2.06608C271.834 1.92208 272.068 1.81408 272.356 1.74208C272.68 1.63408 273.022 1.58008 273.382 1.58008H281.752C282.616 1.58008 283.246 1.77808 283.642 2.17408C284.038 2.57008 284.236 3.20008 284.236 4.06408V39.0561C284.236 39.5241 284.164 39.9201 284.02 40.2441C283.912 40.5681 283.732 40.8381 283.48 41.0541L276.46 46.8861C276.316 47.0301 276.082 47.1561 275.758 47.2641C275.47 47.3721 275.146 47.4261 274.786 47.4261H266.416C265.552 47.4261 264.922 47.2281 264.526 46.8321C264.13 46.4361 263.932 45.8061 263.932 44.9421V33.4941H262.96V39.0561C262.96 39.5241 262.888 39.9201 262.744 40.2441C262.636 40.5681 262.456 40.8381 262.204 41.0541Z" stroke="#E8C139" stroke-width="2"/>
<path d="M312.552 47.4261H287.496C286.632 47.4261 286.002 47.2281 285.606 46.8321C285.21 46.4361 285.012 45.8061 285.012 44.9421V9.95008C285.012 9.48208 285.066 9.08608 285.174 8.76208C285.318 8.43808 285.516 8.16808 285.768 7.95208L292.734 2.06608C292.914 1.92208 293.148 1.81408 293.436 1.74208C293.76 1.63408 294.102 1.58008 294.462 1.58008H319.518C320.382 1.58008 321.012 1.77808 321.408 2.17408C321.804 2.57008 322.002 3.20008 322.002 4.06408V10.3821C322.002 10.8501 321.93 11.2461 321.786 11.5701C321.678 11.8941 321.498 12.1641 321.246 12.3801L316.602 16.2141C316.962 16.3941 317.214 16.6641 317.358 17.0241C317.538 17.3841 317.628 17.8521 317.628 18.4281V24.2061C317.628 24.6741 317.556 25.0701 317.412 25.3941C317.304 25.7181 317.124 25.9881 316.872 26.2041L312.066 30.2541H319.518C320.382 30.2541 321.012 30.4521 321.408 30.8481C321.804 31.2441 322.002 31.8741 322.002 32.7381V39.0561C322.002 39.5241 321.93 39.9201 321.786 40.2441C321.678 40.5681 321.498 40.8381 321.246 41.0541L314.226 46.8861C314.082 47.0301 313.848 47.1561 313.524 47.2641C313.236 47.3721 312.912 47.4261 312.552 47.4261ZM319.518 41.0001C320.202 41.0001 320.688 40.8561 320.976 40.5681C321.3 40.2441 321.462 39.7401 321.462 39.0561V32.7381C321.462 32.0541 321.3 31.5681 320.976 31.2801C320.688 30.9561 320.202 30.7941 319.518 30.7941H304.614V26.1501H315.144C315.828 26.1501 316.314 26.0061 316.602 25.7181C316.926 25.3941 317.088 24.8901 317.088 24.2061V18.4281C317.088 17.7441 316.926 17.2581 316.602 16.9701C316.314 16.6461 315.828 16.4841 315.144 16.4841H304.614V12.3261H319.518C320.202 12.3261 320.688 12.1821 320.976 11.8941C321.3 11.5701 321.462 11.0661 321.462 10.3821V4.06408C321.462 3.38008 321.3 2.89408 320.976 2.60608C320.688 2.28208 320.202 2.12008 319.518 2.12008H294.462C293.778 2.12008 293.274 2.28208 292.95 2.60608C292.662 2.89408 292.518 3.38008 292.518 4.06408V39.0561C292.518 39.7401 292.662 40.2441 292.95 40.5681C293.274 40.8561 293.778 41.0001 294.462 41.0001H319.518ZM316.602 35.6001V36.1401H298.404V6.98008H316.602V7.52008H298.944V21.0741H312.228V21.6141H298.944V35.6001H316.602Z" stroke="#E8C139" stroke-width="2"/>
<path d="M349.818 7.41208L369.69 29.7681V6.98008H370.23V36.1401H369.69V30.5781L349.278 7.68208C349.242 7.64608 349.188 7.61008 349.116 7.57408C349.08 7.53808 349.044 7.52008 349.008 7.52008C348.972 7.52008 348.936 7.53808 348.9 7.57408C348.9 7.61008 348.9 7.64608 348.9 7.68208V36.1401H348.36V7.57408C348.36 7.35808 348.432 7.19608 348.576 7.08808C348.72 6.98008 348.864 6.92608 349.008 6.92608C349.152 6.92608 349.278 6.96208 349.386 7.03408C349.494 7.10608 349.638 7.23208 349.818 7.41208ZM352.734 41.0001C353.418 41.0001 353.904 40.8561 354.192 40.5681C354.516 40.2441 354.678 39.7401 354.678 39.0561V21.2361L363.912 32.4141V39.0561C363.912 39.7401 364.056 40.2441 364.344 40.5681C364.668 40.8561 365.172 41.0001 365.856 41.0001H373.956C374.64 41.0001 375.126 40.8561 375.414 40.5681C375.738 40.2441 375.9 39.7401 375.9 39.0561V4.06408C375.9 3.38008 375.738 2.89408 375.414 2.60608C375.126 2.28208 374.64 2.12008 373.956 2.12008H365.856C365.172 2.12008 364.668 2.28208 364.344 2.60608C364.056 2.89408 363.912 3.38008 363.912 4.06408V15.5661L353.436 3.57808C352.968 3.03808 352.482 2.66008 351.978 2.44408C351.51 2.22808 350.934 2.12008 350.25 2.12008H344.634C343.95 2.12008 343.446 2.28208 343.122 2.60608C342.834 2.89408 342.69 3.38008 342.69 4.06408V39.0561C342.69 39.7401 342.834 40.2441 343.122 40.5681C343.446 40.8561 343.95 41.0001 344.634 41.0001H352.734ZM354.462 41.0541L347.442 46.8861C347.298 47.0301 347.064 47.1561 346.74 47.2641C346.452 47.3721 346.128 47.4261 345.768 47.4261H337.668C336.804 47.4261 336.174 47.2281 335.778 46.8321C335.382 46.4361 335.184 45.8061 335.184 44.9421V9.95008C335.184 9.48208 335.238 9.08608 335.346 8.76208C335.49 8.43808 335.688 8.16808 335.94 7.95208L342.906 2.06608C343.086 1.92208 343.32 1.81408 343.608 1.74208C343.932 1.63408 344.274 1.58008 344.634 1.58008H350.25C351.042 1.58008 351.708 1.70608 352.248 1.95808C352.788 2.21008 353.328 2.62408 353.868 3.20008L357.594 7.52008L364.128 2.06608C364.308 1.92208 364.542 1.81408 364.83 1.74208C365.154 1.63408 365.496 1.58008 365.856 1.58008H373.956C374.82 1.58008 375.45 1.77808 375.846 2.17408C376.242 2.57008 376.44 3.20008 376.44 4.06408V39.0561C376.44 39.5241 376.368 39.9201 376.224 40.2441C376.116 40.5681 375.936 40.8381 375.684 41.0541L368.664 46.8861C368.52 47.0301 368.286 47.1561 367.962 47.2641C367.674 47.3721 367.35 47.4261 366.99 47.4261H358.89C358.026 47.4261 357.396 47.2281 357 46.8321C356.604 46.4361 356.406 45.8061 356.406 44.9421V38.5161L355.218 37.0581V39.0561C355.218 39.5241 355.146 39.9201 355.002 40.2441C354.894 40.5681 354.714 40.8381 354.462 41.0541Z" stroke="#E8C139" stroke-width="2"/>
<path d="M394.127 48.2361C390.635 48.2361 387.755 47.8581 385.487 47.1021C383.255 46.3821 381.509 45.4101 380.249 44.1861C378.989 42.9621 378.107 41.5581 377.603 39.9741C377.135 38.3901 376.901 36.7521 376.901 35.0601V9.95008C376.901 9.48208 376.955 9.08608 377.063 8.76208C377.207 8.43808 377.405 8.16808 377.657 7.95208L384.623 2.06608C384.803 1.92208 385.037 1.81408 385.325 1.74208C385.649 1.63408 385.991 1.58008 386.351 1.58008H394.829C395.693 1.58008 396.323 1.77808 396.719 2.17408C397.115 2.57008 397.313 3.20008 397.313 4.06408V28.6881C397.313 29.0121 397.367 29.3181 397.475 29.6061C397.583 29.8581 397.817 30.0561 398.177 30.2001V9.95008C398.177 9.48208 398.231 9.08608 398.339 8.76208C398.447 8.43808 398.609 8.18608 398.825 8.00608L398.879 7.95208L405.899 2.06608C406.079 1.92208 406.313 1.81408 406.601 1.74208C406.889 1.63408 407.231 1.58008 407.627 1.58008H415.835C416.699 1.58008 417.329 1.77808 417.725 2.17408C418.121 2.57008 418.319 3.20008 418.319 4.06408V30.7941C418.319 32.4501 418.085 33.9801 417.617 35.3841C417.149 36.7881 416.303 37.9941 415.079 39.0021L408.059 44.8341C406.799 45.9141 405.053 46.7421 402.821 47.3181C400.589 47.9301 397.691 48.2361 394.127 48.2361ZM417.779 30.7941V4.06408C417.779 3.38008 417.617 2.89408 417.293 2.60608C417.005 2.28208 416.519 2.12008 415.835 2.12008H407.627C406.943 2.12008 406.439 2.28208 406.115 2.60608C405.827 2.89408 405.683 3.38008 405.683 4.06408V28.6881C405.683 29.4081 405.413 30.0201 404.873 30.5241C404.333 30.9921 403.109 31.2261 401.201 31.2261C399.329 31.2261 398.123 30.9921 397.583 30.5241C397.043 30.0201 396.773 29.4081 396.773 28.6881V4.06408C396.773 3.38008 396.611 2.89408 396.287 2.60608C395.999 2.28208 395.513 2.12008 394.829 2.12008H386.351C385.667 2.12008 385.163 2.28208 384.839 2.60608C384.551 2.89408 384.407 3.38008 384.407 4.06408V30.7941C384.407 32.4501 384.641 33.9621 385.109 35.3301C385.613 36.6621 386.477 37.8141 387.701 38.7861C388.961 39.7221 390.671 40.4601 392.831 41.0001C394.991 41.5401 397.745 41.8101 401.093 41.8101C404.441 41.8101 407.195 41.5401 409.355 41.0001C411.515 40.4601 413.207 39.7221 414.431 38.7861C415.691 37.8141 416.555 36.6621 417.023 35.3301C417.527 33.9621 417.779 32.4501 417.779 30.7941ZM390.347 6.98008H390.887V29.4981C390.887 31.5141 391.589 33.1521 392.993 34.4121C394.433 35.6361 397.151 36.2481 401.147 36.2481C405.143 36.2481 407.861 35.6361 409.301 34.4121C410.741 33.1521 411.461 31.5141 411.461 29.4981V6.98008H412.001V29.4981C412.001 31.6581 411.245 33.4221 409.733 34.7901C408.221 36.1221 405.359 36.7881 401.147 36.7881C396.935 36.7881 394.073 36.1221 392.561 34.7901C391.085 33.4221 390.347 31.6581 390.347 29.4981V6.98008Z" stroke="#E8C139" stroke-width="2"/>
<path d="M445.303 20.2101C445.951 20.2101 446.419 20.0661 446.707 19.7781C446.995 19.4901 447.445 18.8781 448.057 17.9421L454.645 7.89808C454.861 7.53808 455.095 7.30408 455.347 7.19608C455.635 7.05208 455.923 6.98008 456.211 6.98008H457.129C457.633 6.98008 457.993 7.12408 458.209 7.41208C458.461 7.66408 458.587 8.07808 458.587 8.65408V36.1401H458.047V8.65408C458.047 8.36608 457.975 8.11408 457.831 7.89808C457.723 7.64608 457.489 7.52008 457.129 7.52008H456.319C456.067 7.52008 455.851 7.55608 455.671 7.62808C455.491 7.70008 455.293 7.91608 455.077 8.27608L448.489 18.2121C447.841 19.1841 447.337 19.8501 446.977 20.2101C446.653 20.5701 446.095 20.7501 445.303 20.7501C444.511 20.7501 443.935 20.5701 443.575 20.2101C443.251 19.8501 442.765 19.1841 442.117 18.2121L435.529 8.27608C435.313 7.91608 435.097 7.70008 434.881 7.62808C434.701 7.55608 434.485 7.52008 434.233 7.52008H433.423C433.063 7.52008 432.829 7.64608 432.721 7.89808C432.613 8.11408 432.559 8.36608 432.559 8.65408V36.1401H432.019V8.65408C432.019 8.07808 432.127 7.66408 432.343 7.41208C432.595 7.12408 432.955 6.98008 433.423 6.98008H434.341C434.629 6.98008 434.917 7.05208 435.205 7.19608C435.493 7.30408 435.745 7.53808 435.961 7.89808L442.549 17.9421C443.161 18.8781 443.611 19.4901 443.899 19.7781C444.187 20.0661 444.655 20.2101 445.303 20.2101ZM436.285 41.0001C436.969 41.0001 437.455 40.8561 437.743 40.5681C438.067 40.2441 438.229 39.7401 438.229 39.0561V20.0481L441.415 25.9341C441.739 26.5461 442.117 26.9961 442.549 27.2841C443.017 27.5361 443.593 27.6621 444.277 27.6621H446.437C447.121 27.6621 447.679 27.5361 448.111 27.2841C448.579 26.9961 448.975 26.5461 449.299 25.9341L452.485 20.0481V39.0561C452.485 39.7401 452.629 40.2441 452.917 40.5681C453.241 40.8561 453.745 41.0001 454.429 41.0001H462.745C463.429 41.0001 463.915 40.8561 464.203 40.5681C464.527 40.2441 464.689 39.7401 464.689 39.0561V4.06408C464.689 3.38008 464.527 2.89408 464.203 2.60608C463.915 2.28208 463.429 2.12008 462.745 2.12008H453.997C453.421 2.12008 452.935 2.24608 452.539 2.49808C452.179 2.75008 451.837 3.16408 451.513 3.74008L446.707 12.5421C446.527 12.8661 446.365 13.1001 446.221 13.2441C446.113 13.3881 445.951 13.4601 445.735 13.4601H445.249C445.033 13.4601 444.853 13.3881 444.709 13.2441C444.601 13.1001 444.457 12.8661 444.277 12.5421L439.417 3.74008C439.093 3.16408 438.733 2.75008 438.337 2.49808C437.977 2.24608 437.509 2.12008 436.933 2.12008H428.239C427.555 2.12008 427.051 2.28208 426.727 2.60608C426.439 2.89408 426.295 3.38008 426.295 4.06408V39.0561C426.295 39.7401 426.439 40.2441 426.727 40.5681C427.051 40.8561 427.555 41.0001 428.239 41.0001H436.285ZM438.013 41.0541L430.993 46.8861C430.849 47.0301 430.615 47.1561 430.291 47.2641C430.003 47.3721 429.679 47.4261 429.319 47.4261H421.273C420.409 47.4261 419.779 47.2281 419.383 46.8321C418.987 46.4361 418.789 45.8061 418.789 44.9421V9.95008C418.789 9.48208 418.843 9.08608 418.951 8.76208C419.095 8.43808 419.293 8.16808 419.545 7.95208L426.511 2.06608C426.691 1.92208 426.925 1.81408 427.213 1.74208C427.537 1.63408 427.879 1.58008 428.239 1.58008H436.933C437.617 1.58008 438.175 1.72408 438.607 2.01208C439.075 2.30008 439.507 2.78608 439.903 3.47008L443.575 10.2201L444.061 9.35608C444.205 9.10408 444.349 8.87008 444.493 8.65408C444.673 8.40208 444.853 8.20408 445.033 8.06008L451.999 2.22808C452.287 2.01208 452.575 1.85008 452.863 1.74208C453.187 1.63408 453.565 1.58008 453.997 1.58008H462.745C463.609 1.58008 464.239 1.77808 464.635 2.17408C465.031 2.57008 465.229 3.20008 465.229 4.06408V39.0561C465.229 39.5241 465.157 39.9201 465.013 40.2441C464.905 40.5681 464.725 40.8381 464.473 41.0541L457.453 46.8861C457.309 47.0301 457.075 47.1561 456.751 47.2641C456.463 47.3721 456.139 47.4261 455.779 47.4261H447.463C446.563 47.4261 445.915 47.2281 445.519 46.8321C445.159 46.4361 444.979 45.8061 444.979 44.9421V30.6861L441.793 33.3321C441.505 33.5841 441.163 33.7821 440.767 33.9261C440.407 34.0341 439.975 34.0881 439.471 34.0881H438.769V39.0561C438.769 39.5241 438.697 39.9201 438.553 40.2441C438.445 40.5681 438.265 40.8381 438.013 41.0541Z" stroke="#E8C139" stroke-width="2"/>
<path d="M468.481 47.4261C467.617 47.4261 466.987 47.2281 466.591 46.8321C466.195 46.4361 465.997 45.8061 465.997 44.9421V9.95008C465.997 9.48208 466.051 9.08608 466.159 8.76208C466.303 8.43808 466.501 8.16808 466.753 7.95208L473.719 2.06608C473.899 1.92208 474.133 1.81408 474.421 1.74208C474.745 1.63408 475.087 1.58008 475.447 1.58008H492.673C496.417 1.58008 499.171 2.31808 500.935 3.79408C502.699 5.23408 503.581 7.43008 503.581 10.3821V12.9741C503.581 14.2341 503.401 15.3141 503.041 16.2141C502.717 17.1141 502.213 17.8341 501.529 18.3741L501.367 18.4821C503.311 18.9141 504.769 19.8501 505.741 21.2901C506.713 22.6941 507.199 24.6561 507.199 27.1761V32.1441C507.199 33.7641 506.965 35.1681 506.497 36.3561C506.029 37.5081 505.327 38.4801 504.391 39.2721L497.425 45.1581C496.525 45.9141 495.391 46.4721 494.023 46.8321C492.655 47.2281 491.053 47.4261 489.217 47.4261H468.481ZM496.183 41.0001C499.747 41.0001 502.375 40.2801 504.067 38.8401C505.795 37.4001 506.659 35.1681 506.659 32.1441V27.1761C506.659 24.5481 506.101 22.5501 504.985 21.1821C503.869 19.8141 502.159 19.0221 499.855 18.8061C500.935 18.3381 501.727 17.6361 502.231 16.7001C502.771 15.7281 503.041 14.4861 503.041 12.9741V10.3821C503.041 7.57408 502.195 5.50408 500.503 4.17208C498.811 2.80408 496.201 2.12008 492.673 2.12008H475.447C474.763 2.12008 474.259 2.28208 473.935 2.60608C473.647 2.89408 473.503 3.38008 473.503 4.06408V39.0561C473.503 39.7401 473.647 40.2441 473.935 40.5681C474.259 40.8561 474.763 41.0001 475.447 41.0001H496.183ZM494.023 36.1401H479.497V6.98008H490.459C491.935 6.98008 493.141 7.14208 494.077 7.46608C495.013 7.75408 495.733 8.16808 496.237 8.70808C496.741 9.21208 497.083 9.80608 497.263 10.4901C497.443 11.1741 497.533 11.9121 497.533 12.7041V16.1601C497.533 17.2401 497.335 18.2301 496.939 19.1301C496.579 20.0301 495.625 20.6781 494.077 21.0741C495.553 21.0741 496.759 21.2361 497.695 21.5601C498.631 21.8481 499.351 22.2801 499.855 22.8561C500.359 23.3961 500.683 24.0441 500.827 24.8001C501.007 25.5561 501.097 26.3841 501.097 27.2841V30.7401C501.097 31.5321 501.007 32.2701 500.827 32.9541C500.647 33.6021 500.305 34.1601 499.801 34.6281C499.333 35.0961 498.631 35.4741 497.695 35.7621C496.759 36.0141 495.535 36.1401 494.023 36.1401ZM490.459 7.52008H480.037V21.0741H490.459C491.935 21.0741 493.105 20.9481 493.969 20.6961C494.833 20.4081 495.481 20.0481 495.913 19.6161C496.381 19.1481 496.669 18.6261 496.777 18.0501C496.921 17.4381 496.993 16.8081 496.993 16.1601V12.7041C496.993 11.2641 496.579 10.0401 495.751 9.03208C494.923 8.02408 493.159 7.52008 490.459 7.52008ZM485.653 11.3001H490.243C490.927 11.3001 491.431 11.4801 491.755 11.8401C492.115 12.2001 492.295 12.7401 492.295 13.4601V14.9721C492.295 15.6921 492.115 16.2321 491.755 16.5921C491.431 16.9521 490.927 17.1321 490.243 17.1321H485.653V11.3001ZM494.077 21.6141H480.037V35.6001H494.023C496.723 35.6001 498.487 35.1681 499.315 34.3041C500.143 33.4041 500.557 32.2161 500.557 30.7401V27.2841C500.557 25.6641 500.143 24.3141 499.315 23.2341C498.523 22.1541 496.777 21.6141 494.077 21.6141ZM485.653 25.4481H492.673C493.357 25.4481 493.861 25.6281 494.185 25.9881C494.545 26.3121 494.725 26.8341 494.725 27.5541V29.6601C494.725 30.3801 494.545 30.9201 494.185 31.2801C493.861 31.6401 493.357 31.8201 492.673 31.8201H485.653V25.4481Z" stroke="#E8C139" stroke-width="2"/>
<path d="M534.047 47.4261H508.991C508.127 47.4261 507.497 47.2281 507.101 46.8321C506.705 46.4361 506.507 45.8061 506.507 44.9421V9.95008C506.507 9.48208 506.561 9.08608 506.669 8.76208C506.813 8.43808 507.011 8.16808 507.263 7.95208L514.229 2.06608C514.409 1.92208 514.643 1.81408 514.931 1.74208C515.255 1.63408 515.597 1.58008 515.957 1.58008H541.013C541.877 1.58008 542.507 1.77808 542.903 2.17408C543.299 2.57008 543.497 3.20008 543.497 4.06408V10.3821C543.497 10.8501 543.425 11.2461 543.281 11.5701C543.173 11.8941 542.993 12.1641 542.741 12.3801L538.097 16.2141C538.457 16.3941 538.709 16.6641 538.853 17.0241C539.033 17.3841 539.123 17.8521 539.123 18.4281V24.2061C539.123 24.6741 539.051 25.0701 538.907 25.3941C538.799 25.7181 538.619 25.9881 538.367 26.2041L533.561 30.2541H541.013C541.877 30.2541 542.507 30.4521 542.903 30.8481C543.299 31.2441 543.497 31.8741 543.497 32.7381V39.0561C543.497 39.5241 543.425 39.9201 543.281 40.2441C543.173 40.5681 542.993 40.8381 542.741 41.0541L535.721 46.8861C535.577 47.0301 535.343 47.1561 535.019 47.2641C534.731 47.3721 534.407 47.4261 534.047 47.4261ZM541.013 41.0001C541.697 41.0001 542.183 40.8561 542.471 40.5681C542.795 40.2441 542.957 39.7401 542.957 39.0561V32.7381C542.957 32.0541 542.795 31.5681 542.471 31.2801C542.183 30.9561 541.697 30.7941 541.013 30.7941H526.109V26.1501H536.639C537.323 26.1501 537.809 26.0061 538.097 25.7181C538.421 25.3941 538.583 24.8901 538.583 24.2061V18.4281C538.583 17.7441 538.421 17.2581 538.097 16.9701C537.809 16.6461 537.323 16.4841 536.639 16.4841H526.109V12.3261H541.013C541.697 12.3261 542.183 12.1821 542.471 11.8941C542.795 11.5701 542.957 11.0661 542.957 10.3821V4.06408C542.957 3.38008 542.795 2.89408 542.471 2.60608C542.183 2.28208 541.697 2.12008 541.013 2.12008H515.957C515.273 2.12008 514.769 2.28208 514.445 2.60608C514.157 2.89408 514.013 3.38008 514.013 4.06408V39.0561C514.013 39.7401 514.157 40.2441 514.445 40.5681C514.769 40.8561 515.273 41.0001 515.957 41.0001H541.013ZM538.097 35.6001V36.1401H519.899V6.98008H538.097V7.52008H520.439V21.0741H533.723V21.6141H520.439V35.6001H538.097Z" stroke="#E8C139" stroke-width="2"/>
<path d="M568.818 7.52008H557.046V23.1261H568.818C571.05 23.1261 572.544 22.5861 573.3 21.5061C574.056 20.4261 574.434 18.8961 574.434 16.9161V13.1361C574.434 11.4801 573.966 10.1301 573.03 9.08608C572.13 8.04208 570.726 7.52008 568.818 7.52008ZM562.878 11.8401H566.928C567.864 11.8401 568.494 12.0921 568.818 12.5961C569.142 13.0641 569.304 13.6581 569.304 14.3781V16.2141C569.304 16.9341 569.142 17.5461 568.818 18.0501C568.494 18.5181 567.864 18.7521 566.928 18.7521H562.878V11.8401ZM557.046 36.1401H556.506V6.98008H568.818C570.906 6.98008 572.454 7.57408 573.462 8.76208C574.47 9.91408 574.974 11.3721 574.974 13.1361V16.8621C574.974 18.5181 574.758 19.8861 574.326 20.9661C573.894 22.0101 573.03 22.7301 571.734 23.1261H572.328C574.524 23.1261 576.162 23.6301 577.242 24.6381C578.322 25.6101 578.862 27.0321 578.862 28.9041V36.1401H578.322V28.9041C578.322 27.1401 577.836 25.8261 576.864 24.9621C575.892 24.0621 574.38 23.6121 572.328 23.6121H557.046V36.1401ZM560.934 41.0001C561.618 41.0001 562.104 40.8561 562.392 40.5681C562.716 40.2441 562.878 39.7401 562.878 39.0561V28.4721H570.438C571.194 28.4721 571.716 28.6701 572.004 29.0661C572.328 29.4261 572.49 30.0021 572.49 30.7941V39.0561C572.49 39.7401 572.634 40.2441 572.922 40.5681C573.246 40.8561 573.75 41.0001 574.434 41.0001H582.804C583.488 41.0001 583.974 40.8561 584.262 40.5681C584.586 40.2441 584.748 39.7401 584.748 39.0561V27.6081C584.748 25.3401 584.136 23.5221 582.912 22.1541C581.724 20.7861 580.158 19.9941 578.214 19.7781C579.33 19.3101 580.104 18.5541 580.536 17.5101C581.004 16.4301 581.238 15.1341 581.238 13.6221V11.1381C581.238 8.47408 580.464 6.31408 578.916 4.65808C577.404 2.96608 574.632 2.12008 570.6 2.12008H552.618C551.934 2.12008 551.43 2.28208 551.106 2.60608C550.818 2.89408 550.674 3.38008 550.674 4.06408V39.0561C550.674 39.7401 550.818 40.2441 551.106 40.5681C551.43 40.8561 551.934 41.0001 552.618 41.0001H560.934ZM562.662 41.0541L555.642 46.8861C555.498 47.0301 555.264 47.1561 554.94 47.2641C554.652 47.3721 554.328 47.4261 553.968 47.4261H545.652C544.788 47.4261 544.158 47.2281 543.762 46.8321C543.366 46.4361 543.168 45.8061 543.168 44.9421V9.95008C543.168 9.48208 543.222 9.08608 543.33 8.76208C543.474 8.43808 543.672 8.16808 543.924 7.95208L550.89 2.06608C551.07 1.92208 551.304 1.81408 551.592 1.74208C551.916 1.63408 552.258 1.58008 552.618 1.58008H570.6C574.884 1.58008 577.818 2.48008 579.402 4.28008C580.986 6.04408 581.778 8.33008 581.778 11.1381V13.6221C581.778 14.9541 581.616 16.1241 581.292 17.1321C580.968 18.1041 580.446 18.8961 579.726 19.5081H579.672C581.364 19.9761 582.714 20.9121 583.722 22.3161C584.766 23.7201 585.288 25.4841 585.288 27.6081V39.0561C585.288 39.5241 585.216 39.9201 585.072 40.2441C584.964 40.5681 584.784 40.8381 584.532 41.0541L577.512 46.8861C577.368 47.0301 577.134 47.1561 576.81 47.2641C576.522 47.3721 576.198 47.4261 575.838 47.4261H567.468C566.604 47.4261 565.974 47.2281 565.578 46.8321C565.182 46.4361 564.984 45.8061 564.984 44.9421V36.6801C564.984 36.1041 564.876 35.6721 564.66 35.3841C564.444 35.0601 564.048 34.8981 563.472 34.8981H563.418V39.0561C563.418 39.5241 563.346 39.9201 563.202 40.2441C563.094 40.5681 562.914 40.8381 562.662 41.0541Z" stroke="#E8C139" stroke-width="2"/>
</svg>
